<svg xmlns="http://www.w3.org/2000/svg" xmlns:xlink="http://www.w3.org/1999/xlink" viewBox="0 0 119 28"><g id="ss2012084903_1"><path d="M 0 27.297 L 0 0 L 119 0 L 119 27.297 Z" fill="transparent"></path><g transform="translate(0.536 0)" id="ss2012084903_3"><path d="M 10.385 26.86 C 7.691 26.86 5.019 25.899 2.737 24.049 L 2.336 23.721 L 6.453 19.026 C 6.539 18.928 6.664 18.868 6.793 18.857 C 6.923 18.851 7.053 18.895 7.15 18.982 C 7.248 19.07 7.307 19.195 7.318 19.326 C 7.323 19.457 7.28 19.588 7.194 19.687 L 3.77 23.59 C 6.647 25.73 10.12 26.402 13.382 25.424 L 17.368 24.223 L 21.355 25.424 C 24.611 26.402 28.084 25.735 30.961 23.595 L 27.489 19.665 C 27.402 19.566 27.359 19.435 27.364 19.304 C 27.37 19.173 27.429 19.048 27.526 18.96 C 27.624 18.873 27.754 18.829 27.883 18.835 C 28.013 18.84 28.138 18.9 28.224 18.999 L 32.389 23.716 L 31.984 24.043 C 28.771 26.642 24.795 27.488 21.068 26.369 L 17.363 25.255 L 13.658 26.369 C 12.597 26.691 11.494 26.849 10.385 26.849" fill="rgb(51,51,51)"></path><path d="M 10.385 26.86 C 7.691 26.86 5.019 25.899 2.737 24.049 L 2.336 23.721 L 6.453 19.026 C 6.539 18.928 6.664 18.868 6.793 18.857 C 6.923 18.851 7.053 18.895 7.15 18.982 C 7.248 19.07 7.307 19.195 7.318 19.326 C 7.323 19.457 7.28 19.588 7.194 19.687 L 3.77 23.59 C 6.647 25.73 10.12 26.402 13.382 25.424 L 17.368 24.223 L 21.355 25.424 C 24.611 26.402 28.084 25.735 30.961 23.595 L 27.489 19.665 C 27.402 19.566 27.359 19.435 27.364 19.304 C 27.37 19.173 27.429 19.048 27.526 18.96 C 27.624 18.873 27.754 18.829 27.883 18.835 C 28.013 18.84 28.138 18.9 28.224 18.999 L 32.389 23.716 L 31.984 24.043 C 28.771 26.642 24.795 27.488 21.068 26.369 L 17.363 25.255 L 13.658 26.369 C 12.597 26.691 11.494 26.849 10.385 26.849" fill="transparent" stroke-width="0.54" stroke="rgb(51,51,51)" stroke-linejoin="round"></path><path d="M 17.363 24.774 L 9.249 20.052 C 8.351 19.392 7.621 18.529 7.123 17.524 C 6.626 16.52 6.371 15.412 6.388 14.293 L 6.458 9.456 L 9.703 10.531 C 9.768 10.553 9.822 10.58 9.877 10.624 C 9.925 10.667 9.969 10.717 9.996 10.777 C 10.028 10.837 10.044 10.897 10.05 10.962 C 10.05 11.028 10.05 11.093 10.028 11.159 C 10.006 11.219 9.974 11.279 9.931 11.328 C 9.887 11.377 9.833 11.421 9.779 11.448 C 9.72 11.476 9.655 11.492 9.59 11.497 C 9.525 11.497 9.46 11.497 9.395 11.47 L 7.421 10.815 L 7.372 14.298 C 7.361 15.253 7.572 16.203 8 17.06 C 8.422 17.917 9.044 18.66 9.812 19.228 L 17.368 23.628 L 25.017 19.228 C 25.785 18.665 26.412 17.917 26.834 17.06 C 27.261 16.203 27.472 15.253 27.462 14.293 L 27.413 10.809 L 25.163 11.536 C 25.038 11.574 24.903 11.563 24.789 11.503 C 24.676 11.443 24.584 11.339 24.546 11.213 C 24.508 11.088 24.519 10.951 24.578 10.837 C 24.638 10.722 24.741 10.629 24.865 10.591 L 28.376 9.461 L 28.441 14.282 C 28.457 15.406 28.203 16.52 27.705 17.524 C 27.202 18.529 26.472 19.397 25.568 20.052 L 25.525 20.079 Z" fill="rgb(51,51,51)" stroke-width="0.54" stroke="rgb(51,51,51)" stroke-linecap="round" stroke-linejoin="round"></path><path d="M 17.385 16.88 L 10.542 12.933 L 17.385 22.695 L 24.076 12.933 Z" fill="rgb(51,51,51)"></path><path d="M 17.384 0 L 10.758 11.159 L 17.373 15.21 L 24.081 11.213 Z" fill="rgb(51,51,51)"></path><path d="M 3.705 20.303 C 3.592 20.303 3.483 20.265 3.397 20.194 C 3.31 20.123 3.251 20.025 3.224 19.916 C 2.899 18.469 1.974 16.919 0.557 15.445 L -0 14.871 L 0.757 14.626 C 2.434 14.091 3.895 14.014 5.231 14.402 C 5.355 14.44 5.463 14.522 5.523 14.637 C 5.588 14.751 5.598 14.888 5.566 15.013 C 5.533 15.139 5.447 15.248 5.333 15.308 C 5.22 15.374 5.085 15.385 4.96 15.352 C 4.003 15.073 2.991 15.073 1.817 15.352 C 3.051 16.777 3.862 18.262 4.187 19.687 C 4.203 19.757 4.203 19.834 4.187 19.905 C 4.17 19.976 4.138 20.047 4.089 20.101 C 4.041 20.161 3.986 20.205 3.916 20.238 C 3.851 20.271 3.776 20.287 3.705 20.287" fill="rgb(51,51,51)"></path><path d="M 3.705 20.303 C 3.592 20.303 3.483 20.265 3.397 20.194 C 3.31 20.123 3.251 20.025 3.224 19.916 C 2.899 18.469 1.974 16.919 0.557 15.445 L -0 14.871 L 0.757 14.626 C 2.434 14.091 3.895 14.014 5.231 14.402 C 5.355 14.44 5.463 14.522 5.523 14.637 C 5.588 14.751 5.598 14.888 5.566 15.013 C 5.533 15.139 5.447 15.248 5.333 15.308 C 5.22 15.374 5.085 15.385 4.96 15.352 C 4.003 15.073 2.991 15.073 1.817 15.352 C 3.051 16.777 3.862 18.262 4.187 19.687 C 4.203 19.757 4.203 19.834 4.187 19.905 C 4.17 19.976 4.138 20.047 4.089 20.101 C 4.041 20.161 3.986 20.205 3.916 20.238 C 3.851 20.271 3.776 20.287 3.705 20.287" fill="transparent" stroke-width="0.54" stroke="rgb(51,51,51)" stroke-linecap="round" stroke-linejoin="round"></path><path d="M 31.069 20.303 C 30.994 20.303 30.923 20.287 30.858 20.254 C 30.793 20.221 30.734 20.172 30.685 20.118 C 30.637 20.063 30.604 19.992 30.588 19.921 C 30.572 19.85 30.572 19.774 30.588 19.703 C 30.912 18.278 31.724 16.793 32.957 15.368 C 31.783 15.089 30.772 15.089 29.814 15.368 C 29.755 15.384 29.69 15.39 29.625 15.384 C 29.56 15.379 29.501 15.357 29.441 15.324 C 29.387 15.292 29.333 15.248 29.295 15.199 C 29.257 15.15 29.225 15.089 29.209 15.024 C 29.192 14.964 29.187 14.898 29.192 14.833 C 29.198 14.767 29.219 14.707 29.252 14.647 C 29.284 14.593 29.328 14.538 29.376 14.5 C 29.425 14.462 29.484 14.429 29.544 14.413 C 30.88 14.025 32.346 14.096 34.017 14.636 L 34.775 14.882 L 34.217 15.455 C 32.8 16.929 31.875 18.474 31.551 19.926 C 31.524 20.036 31.464 20.134 31.378 20.205 C 31.291 20.276 31.183 20.314 31.069 20.314" fill="rgb(51,51,51)"></path><path d="M 31.069 20.303 C 30.994 20.303 30.923 20.287 30.858 20.254 C 30.793 20.221 30.734 20.172 30.685 20.118 C 30.637 20.063 30.604 19.992 30.588 19.921 C 30.572 19.85 30.572 19.774 30.588 19.703 C 30.912 18.278 31.724 16.793 32.957 15.368 C 31.783 15.089 30.772 15.089 29.814 15.368 C 29.755 15.384 29.69 15.39 29.625 15.384 C 29.56 15.379 29.501 15.357 29.441 15.324 C 29.387 15.292 29.333 15.248 29.295 15.199 C 29.257 15.15 29.225 15.089 29.209 15.024 C 29.192 14.964 29.187 14.898 29.192 14.833 C 29.198 14.767 29.219 14.707 29.252 14.647 C 29.284 14.593 29.328 14.538 29.376 14.5 C 29.425 14.462 29.484 14.429 29.544 14.413 C 30.88 14.025 32.346 14.096 34.017 14.636 L 34.775 14.882 L 34.217 15.455 C 32.8 16.929 31.875 18.474 31.551 19.926 C 31.524 20.036 31.464 20.134 31.378 20.205 C 31.291 20.276 31.183 20.314 31.069 20.314" fill="transparent" stroke-width="0.54" stroke="rgb(51,51,51)" stroke-miterlimit="10"></path><path d="M 9.536 9.521 C 9.466 9.521 9.401 9.505 9.336 9.477 C 9.271 9.45 9.217 9.406 9.168 9.357 C 9.12 9.303 9.087 9.243 9.066 9.177 C 9.044 9.112 9.039 9.041 9.044 8.97 L 9.433 5.437 L 11.884 7.124 C 11.986 7.201 12.057 7.315 12.084 7.441 C 12.105 7.567 12.084 7.698 12.008 7.807 C 11.938 7.916 11.824 7.987 11.7 8.014 C 11.575 8.042 11.44 8.014 11.337 7.943 L 10.234 7.184 L 10.023 9.079 C 10.012 9.199 9.953 9.314 9.861 9.395 C 9.769 9.477 9.655 9.521 9.531 9.521" fill="rgb(51,51,51)"></path><path d="M 9.536 9.521 C 9.466 9.521 9.401 9.505 9.336 9.477 C 9.271 9.45 9.217 9.406 9.168 9.357 C 9.12 9.303 9.087 9.243 9.066 9.177 C 9.044 9.112 9.039 9.041 9.044 8.97 L 9.433 5.437 L 11.884 7.124 C 11.986 7.201 12.057 7.315 12.084 7.441 C 12.105 7.567 12.084 7.698 12.008 7.807 C 11.938 7.916 11.824 7.987 11.7 8.014 C 11.575 8.042 11.44 8.014 11.337 7.943 L 10.234 7.184 L 10.023 9.079 C 10.012 9.199 9.953 9.314 9.861 9.395 C 9.769 9.477 9.655 9.521 9.531 9.521" fill="transparent" stroke-width="0.54" stroke="rgb(51,51,51)" stroke-linejoin="round"></path><path d="M 25.076 9.521 C 24.957 9.521 24.844 9.477 24.752 9.395 C 24.66 9.314 24.606 9.204 24.59 9.084 L 24.346 7.174 L 23.232 7.938 C 23.124 8.014 22.994 8.042 22.864 8.014 C 22.734 7.992 22.621 7.916 22.55 7.807 C 22.475 7.698 22.448 7.567 22.475 7.436 C 22.502 7.305 22.572 7.19 22.68 7.119 L 25.12 5.437 L 25.563 8.959 C 25.574 9.03 25.563 9.101 25.547 9.166 C 25.525 9.232 25.493 9.297 25.444 9.346 C 25.396 9.401 25.341 9.439 25.277 9.472 C 25.212 9.499 25.141 9.516 25.076 9.516" fill="rgb(51,51,51)"></path><path d="M 25.076 9.521 C 24.957 9.521 24.844 9.477 24.752 9.395 C 24.66 9.314 24.606 9.204 24.59 9.084 L 24.346 7.174 L 23.232 7.938 C 23.124 8.014 22.994 8.042 22.864 8.014 C 22.734 7.992 22.621 7.916 22.55 7.807 C 22.475 7.698 22.448 7.567 22.475 7.436 C 22.502 7.305 22.572 7.19 22.68 7.119 L 25.12 5.437 L 25.563 8.959 C 25.574 9.03 25.563 9.101 25.547 9.166 C 25.525 9.232 25.493 9.297 25.444 9.346 C 25.396 9.401 25.341 9.439 25.277 9.472 C 25.212 9.499 25.141 9.516 25.076 9.516" fill="transparent" stroke-width="0.54" stroke="rgb(51,51,51)" stroke-linecap="round" stroke-linejoin="round"></path><path d="M 74.666 7.474 L 74.666 13.621 L 67.413 13.621 L 67.413 7.474 L 43.034 7.474 L 43.034 22.067 L 54.171 22.067 L 54.171 19.774 L 46.004 19.774 L 46.004 15.914 L 54.177 15.914 L 54.177 13.621 L 46.004 13.621 L 46.004 9.767 L 57.844 9.767 L 57.844 22.067 L 60.808 22.067 L 60.808 9.767 L 64.449 9.767 L 64.449 22.067 L 67.418 22.067 L 67.418 15.914 L 74.672 15.914 L 74.672 22.061 L 77.636 22.061 L 77.636 7.474 L 74.672 7.474 Z" fill="rgb(51,51,51)"></path><path d="M 79.594 22.067 L 81.942 22.067 L 81.942 7.425 L 79.594 7.425 Z" fill="rgb(51,51,51)"></path><path d="M 84.013 12.152 L 86.29 12.152 L 86.29 13.07 C 87.085 12.278 87.978 11.879 88.973 11.879 C 90.115 11.879 91.007 12.245 91.645 12.971 C 92.197 13.588 92.473 14.598 92.473 15.996 L 92.473 22.072 L 90.196 22.072 L 90.196 16.536 C 90.196 15.559 90.06 14.882 89.79 14.511 C 89.525 14.129 89.049 13.943 88.357 13.943 C 87.605 13.943 87.069 14.194 86.75 14.696 C 86.442 15.193 86.285 16.056 86.285 17.29 L 86.285 22.072 L 84.008 22.072 L 84.008 12.152 Z" fill="rgb(51,51,51)"></path><path d="M 95.751 17.077 C 95.751 18.027 96.005 18.802 96.508 19.397 C 97.027 20.003 97.676 20.303 98.466 20.303 C 99.305 20.303 99.986 20.014 100.505 19.43 C 101.025 18.824 101.284 18.06 101.284 17.132 C 101.284 16.204 101.025 15.434 100.505 14.833 C 99.986 14.244 99.315 13.949 98.488 13.949 C 97.709 13.949 97.054 14.249 96.53 14.844 C 96.01 15.45 95.751 16.193 95.751 17.082 Z M 101.138 7.425 L 103.416 7.425 L 103.416 22.067 L 101.138 22.067 L 101.138 21.03 C 100.246 21.914 99.234 22.351 98.104 22.351 C 96.757 22.351 95.643 21.854 94.756 20.866 C 93.874 19.856 93.436 18.595 93.436 17.077 C 93.436 15.559 93.874 14.364 94.756 13.37 C 95.632 12.371 96.73 11.874 98.055 11.874 C 99.207 11.874 100.235 12.349 101.144 13.299 L 101.144 7.425 Z" fill="rgb(51,51,51)"></path><path d="M 105.038 22.067 L 107.305 22.067 L 107.305 12.152 L 105.038 12.152 Z M 104.698 8.904 C 104.698 8.506 104.844 8.156 105.13 7.867 C 105.265 7.725 105.428 7.616 105.606 7.539 C 105.785 7.463 105.974 7.425 106.169 7.43 C 106.58 7.43 106.926 7.577 107.218 7.867 C 107.505 8.151 107.651 8.5 107.651 8.915 C 107.651 9.33 107.505 9.685 107.218 9.974 C 107.083 10.116 106.926 10.225 106.742 10.302 C 106.564 10.378 106.369 10.416 106.18 10.411 C 105.985 10.411 105.79 10.378 105.612 10.302 C 105.433 10.225 105.265 10.116 105.13 9.974 C 104.838 9.685 104.698 9.325 104.698 8.904 Z" fill="rgb(51,51,51)"></path><path d="M 110.799 17.077 C 110.799 18.027 111.053 18.802 111.556 19.397 C 112.075 20.003 112.724 20.303 113.514 20.303 C 114.353 20.303 115.034 20.014 115.548 19.43 C 116.067 18.824 116.327 18.059 116.327 17.131 C 116.327 16.203 116.067 15.434 115.548 14.833 C 115.029 14.243 114.358 13.949 113.53 13.949 C 112.751 13.949 112.097 14.249 111.572 14.844 C 111.053 15.45 110.793 16.198 110.793 17.082 Z M 116.186 12.152 L 118.463 12.152 L 118.463 22.067 L 116.186 22.067 L 116.186 21.029 C 115.25 21.914 114.244 22.35 113.173 22.35 C 111.816 22.35 110.691 21.854 109.804 20.866 C 108.922 19.856 108.484 18.594 108.484 17.077 C 108.484 15.559 108.922 14.353 109.804 13.359 C 110.685 12.365 111.789 11.874 113.114 11.874 C 114.255 11.874 115.283 12.349 116.192 13.299 L 116.192 12.147 Z" fill="rgb(51,51,51)"></path></g></g></svg>