<svg width="3150" height="1800" viewBox="0 0 3150 1800" fill="none" xmlns="http://www.w3.org/2000/svg">
<g clip-path="url(#clip0_374_94)">
<rect width="3150" height="1800" fill="#250F47"/>
<path d="M1575 1758.36C2106.59 1758.36 2537.53 1527.74 2537.53 1243.27C2537.53 958.789 2106.59 728.176 1575 728.176C1043.41 728.176 612.473 958.789 612.473 1243.27C612.473 1527.74 1043.41 1758.36 1575 1758.36Z" fill="#F5F5F5"/>
<path d="M2094.47 1214.83L2411.8 1050.19C2424.32 1043.68 2424.32 1033.13 2411.8 1026.62L1953.93 788.352C1941.4 781.844 1921.08 781.844 1908.56 788.352L1591.25 952.99C1578.72 959.498 1578.72 970.048 1591.25 976.557L2049.1 1214.83C2061.63 1221.34 2081.95 1221.34 2094.47 1214.83Z" fill="#E0E0E0"/>
<path d="M1287.04 1616.65L811.57 1370.08C798.18 1363.12 798.18 1351.85 811.57 1344.89L1473.05 1001.28C1486.44 994.328 1508.15 994.328 1521.54 1001.28L1997 1247.85C2010.39 1254.8 2010.39 1266.08 1997 1273.03L1335.53 1616.65C1322.14 1623.6 1300.43 1623.6 1287.04 1616.65Z" fill="#E0E0E0"/>
<path d="M1024.53 1582.77C972.12 1609.99 887.156 1609.99 834.754 1582.77C782.348 1555.55 782.348 1511.42 834.754 1484.2C887.16 1456.98 972.124 1456.98 1024.53 1484.2C1076.93 1511.42 1076.93 1555.55 1024.53 1582.77Z" fill="#E0E0E0"/>
<path d="M1544.83 1577.4C1544.97 1577.23 1545.13 1577.07 1545.29 1576.93L1569.22 1553.27C1569.22 1553.25 1569.24 1553.23 1569.26 1553.21L1569.45 1553.03C1569.59 1552.88 1569.74 1552.74 1569.88 1552.6L1570.14 1552.35L1570.15 1552.37C1573.57 1549.42 1579 1549.17 1585.12 1552.35C1595.48 1557.73 1603.87 1570.8 1603.87 1581.56C1603.87 1587.8 1601.03 1591.86 1596.63 1593.14L1596.65 1593.16L1596.36 1593.22C1595.92 1593.33 1595.47 1593.42 1595 1593.48L1594.7 1593.54C1594.68 1593.54 1594.64 1593.54 1594.61 1593.56L1559.94 1600.37C1558.21 1600.72 1556.14 1600.35 1553.9 1599.19C1547.97 1596.12 1543.17 1588.64 1543.17 1582.5C1543.17 1580.29 1543.77 1578.58 1544.83 1577.4Z" fill="#E0E0E0"/>
<path d="M2105.16 1359.59L1600.61 1621.93L1530.71 1634.72C1528.92 1635.05 1527.53 1633.35 1528.4 1631.91L1550.28 1595.8L2054.91 1333.42C2068.69 1326.26 2115.97 1353.97 2105.16 1359.59Z" fill="#E0E0E0"/>
<path d="M1818.03 1573.86C1823.1 1586.25 1837.79 1593.94 1862.27 1596.84L2299.36 1367.83L2344.73 1326.48C2347.33 1324.11 2344.63 1320.2 2341.12 1321.25L2257.61 1346.14L1818.03 1573.86Z" fill="#E0E0E0"/>
<path d="M2346.4 1038.72L2064.97 1181.68L1632.79 958.582L1914.19 815.602L2346.4 1038.72Z" fill="#BA68C8"/>
<path opacity="0.6" d="M2346.4 1038.72L2064.97 1181.68L1632.79 958.582L1914.19 815.602L2346.4 1038.72Z" fill="black"/>
<path d="M2061.91 1171.23L2333.86 1032.25C2327.1 1015 2327.61 1009.76 2335.25 986.805L2064.97 1124.38C2064.97 1124.38 2060.05 1124.05 2061.91 1171.23Z" fill="#F5F5F5"/>
<path d="M2078.16 1105.53C2064.44 1112.62 2053.32 1129.84 2053.31 1144.01V1174.08C2053.31 1188.25 2064.44 1193.99 2078.16 1186.91L2346.36 1049.86L2346.39 1038.72L2081.59 1173.19C2073.35 1177.44 2066.69 1173.99 2066.7 1165.49L2066.93 1138.72C2066.94 1130.22 2073.62 1119.88 2081.86 1115.63L2346.37 981.1V968.477L2078.16 1105.53Z" fill="#BA68C8"/>
<path opacity="0.5" d="M2078.16 1105.53C2064.44 1112.62 2053.32 1129.84 2053.31 1144.01V1174.08C2053.31 1188.25 2064.44 1193.99 2078.16 1186.91L2346.36 1049.86L2346.39 1038.72L2081.59 1173.19C2073.35 1177.44 2066.69 1173.99 2066.7 1165.49L2066.93 1138.72C2066.94 1130.22 2073.62 1119.88 2081.86 1115.63L2346.37 981.1V968.477L2078.16 1105.53Z" fill="black"/>
<path d="M2346.37 968.502L1914.18 745.395L1646 882.434C1632.28 889.514 1621.15 906.758 1621.15 920.917L1621.14 950.992C1621.16 958.05 1623.91 963.027 1628.43 965.359L2060.61 1188.47C2056.09 1186.13 2053.34 1181.16 2053.32 1174.1L2053.29 1144C2053.29 1129.84 2064.42 1112.6 2078.13 1105.52L2346.37 968.502Z" fill="#BA68C8"/>
<path opacity="0.35" d="M2346.37 968.502L1914.18 745.395L1646 882.434C1632.28 889.514 1621.15 906.758 1621.15 920.917L1621.14 950.992C1621.16 958.05 1623.91 963.027 1628.43 965.359L2060.61 1188.47C2056.09 1186.13 2053.34 1181.16 2053.32 1174.1L2053.29 1144C2053.29 1129.84 2064.42 1112.6 2078.13 1105.52L2346.37 968.502Z" fill="black"/>
<path d="M2060.57 1122.11C2056.08 1129.07 2053.29 1136.92 2053.29 1144L2053.33 1174.1C2053.35 1181.16 2056.1 1186.13 2060.62 1188.47L1628.44 965.358C1623.91 963.023 1621.16 958.05 1621.15 950.992L1621.16 920.917C1621.16 913.833 1623.94 905.99 1628.44 899.02L2060.57 1122.11Z" fill="#BA68C8"/>
<path opacity="0.45" d="M2060.57 1122.11C2056.08 1129.07 2053.29 1136.92 2053.29 1144L2053.33 1174.1C2053.35 1181.16 2056.1 1186.13 2060.62 1188.47L1628.44 965.358C1623.91 963.023 1621.16 958.05 1621.15 950.992L1621.16 920.917C1621.16 913.833 1623.94 905.99 1628.44 899.02L2060.57 1122.11Z" fill="black"/>
<path d="M1686.81 928.844C1678.76 960.312 1678.87 972.605 1686.81 995.681L1707.38 1006.37C1699.45 983.29 1699.33 970.994 1707.39 939.528L1686.81 928.844Z" fill="#BA68C8"/>
<path d="M1970.27 1075.38C1962.22 1106.84 1962.33 1118.74 1970.27 1141.82L1990.84 1152.5C1982.91 1129.42 1982.79 1117.52 1990.85 1086.06L1970.27 1075.38Z" fill="#BA68C8"/>
<path d="M2403.17 964.747L2121.74 1107.71L1689.55 884.61L1970.96 741.629L2403.17 964.747Z" fill="#BA68C8"/>
<path opacity="0.4" d="M2403.17 964.747L2121.74 1107.71L1689.55 884.61L1970.96 741.629L2403.17 964.747Z" fill="black"/>
<path d="M2118.68 1097.26L2390.63 958.275C2383.87 941.027 2384.38 933.311 2392.03 910.352L2121.74 1047.92C2121.74 1047.92 2116.83 1050.08 2118.68 1097.26Z" fill="#F5F5F5"/>
<path d="M2134.93 1029.07C2121.21 1036.16 2110.09 1053.39 2110.09 1067.56V1100.1C2110.09 1114.28 2121.21 1120.02 2134.93 1112.93L2403.13 975.879L2403.17 964.743L2138.36 1099.21C2130.13 1103.46 2123.46 1100.02 2123.47 1091.52L2123.71 1062.26C2123.71 1053.76 2130.39 1043.43 2138.63 1039.17L2403.14 904.639V892.016L2134.93 1029.07Z" fill="#BA68C8"/>
<path opacity="0.25" d="M2134.93 1029.07C2121.21 1036.16 2110.09 1053.39 2110.09 1067.56V1100.1C2110.09 1114.28 2121.21 1120.02 2134.93 1112.93L2403.13 975.879L2403.17 964.743L2138.36 1099.21C2130.13 1103.46 2123.46 1100.02 2123.47 1091.52L2123.71 1062.26C2123.71 1053.76 2130.39 1043.43 2138.63 1039.17L2403.14 904.639V892.016L2134.93 1029.07Z" fill="black"/>
<path d="M2403.14 892.049L1970.95 668.941L1702.77 805.981C1689.06 813.061 1677.92 830.305 1677.92 844.464L1677.91 877.02C1677.93 884.078 1680.68 889.055 1685.2 891.387L2117.38 1114.49C2112.86 1112.16 2110.11 1107.19 2110.1 1100.13L2110.06 1067.54C2110.06 1053.38 2121.19 1036.14 2134.9 1029.06L2403.14 892.049Z" fill="#BA68C8"/>
<path d="M2117.34 1045.65C2112.85 1052.62 2110.07 1060.46 2110.07 1067.54L2110.1 1100.13C2110.12 1107.19 2112.87 1112.16 2117.39 1114.49L1685.21 891.386C1680.69 889.051 1677.94 884.078 1677.92 877.02L1677.93 844.464C1677.93 837.38 1680.71 829.537 1685.21 822.566L2117.34 1045.65Z" fill="#BA68C8"/>
<path opacity="0.15" d="M2117.34 1045.65C2112.85 1052.62 2110.07 1060.46 2110.07 1067.54L2110.1 1100.13C2110.12 1107.19 2112.87 1112.16 2117.39 1114.49L1685.21 891.386C1680.69 889.051 1677.94 884.078 1677.92 877.02L1677.93 844.464C1677.93 837.38 1680.71 829.537 1685.21 822.566L2117.34 1045.65Z" fill="black"/>
<path d="M1743.57 852.387C1735.52 883.855 1735.64 898.629 1743.57 921.709L1764.14 932.394C1756.21 909.318 1756.09 894.54 1764.15 863.072L1743.57 852.387Z" fill="#BA68C8"/>
<path d="M2027.04 999.104C2018.99 1030.57 2019.11 1044.82 2027.04 1067.9L2047.61 1078.58C2039.68 1055.5 2039.56 1041.16 2047.62 1009.69L2027.04 999.104Z" fill="#BA68C8"/>
<g opacity="0.4">
<path d="M1743.57 852.387C1735.52 883.855 1735.64 898.629 1743.57 921.709L1764.14 932.394C1756.21 909.318 1756.09 894.54 1764.15 863.072L1743.57 852.387Z" fill="white"/>
<path d="M2027.04 999.104C2018.99 1030.57 2019.11 1044.82 2027.04 1067.9L2047.61 1078.58C2039.68 1055.5 2039.56 1041.16 2047.62 1009.69L2027.04 999.104Z" fill="white"/>
</g>
<path d="M881.445 1357.65L1318.57 1581.06L1952.6 1253.65L1515.52 1030.23L881.445 1357.65Z" fill="#BA68C8"/>
<path opacity="0.4" d="M881.445 1357.65L1318.57 1581.06L1952.6 1253.65L1515.52 1030.23L881.445 1357.65Z" fill="black"/>
<path d="M1321.83 1569.89L894.844 1350.73C902.062 1332.3 901.52 1324.05 893.352 1299.52L1318.57 1517.17C1318.57 1517.17 1323.82 1519.47 1321.83 1569.89Z" fill="#F5F5F5"/>
<path d="M1304.47 1497.03C1319.13 1504.6 1331.02 1523.01 1331.02 1538.16V1572.93C1331.02 1588.08 1319.14 1594.21 1304.47 1586.65L881.482 1369.55L881.449 1357.65L1300.81 1571.99C1309.61 1576.53 1316.73 1572.84 1316.72 1563.76L1316.47 1532.5C1316.46 1523.41 1309.32 1512.37 1300.52 1507.82L881.482 1293.42V1279.93L1304.47 1497.03Z" fill="#BA68C8"/>
<path opacity="0.3" d="M1304.47 1497.03C1319.13 1504.6 1331.02 1523.01 1331.02 1538.16V1572.93C1331.02 1588.08 1319.14 1594.21 1304.47 1586.65L881.482 1369.55L881.449 1357.65L1300.81 1571.99C1309.61 1576.53 1316.73 1572.84 1316.72 1563.76L1316.47 1532.5C1316.46 1523.41 1309.32 1512.37 1300.52 1507.82L881.482 1293.42V1279.93L1304.47 1497.03Z" fill="black"/>
<path d="M881.477 1279.96L1515.52 952.553L1938.49 1169.63C1953.14 1177.2 1965.04 1195.62 1965.04 1210.76L1965.05 1245.55C1965.03 1253.09 1962.09 1258.41 1957.26 1260.9L1323.22 1588.31C1328.05 1585.81 1330.99 1580.5 1331 1572.96L1331.04 1538.14C1331.04 1523.01 1319.15 1504.58 1304.5 1497.02L881.477 1279.96Z" fill="#BA68C8"/>
<path opacity="0.2" d="M881.477 1279.96L1515.52 952.553L1938.49 1169.63C1953.14 1177.2 1965.04 1195.62 1965.04 1210.76L1965.05 1245.55C1965.03 1253.09 1962.09 1258.41 1957.26 1260.9L1323.22 1588.31C1328.05 1585.81 1330.99 1580.5 1331 1572.96L1331.04 1538.14C1331.04 1523.01 1319.15 1504.58 1304.5 1497.02L881.477 1279.96Z" fill="black"/>
<path d="M1323.27 1514.74C1328.07 1522.18 1331.04 1530.57 1331.04 1538.14L1331 1572.95C1330.99 1580.5 1328.05 1585.81 1323.22 1588.31L1957.26 1260.9C1962.09 1258.41 1965.03 1253.09 1965.05 1245.55L1965.04 1210.76C1965.03 1203.19 1962.06 1194.81 1957.26 1187.36L1323.27 1514.74Z" fill="#BA68C8"/>
<path d="M1323.26 1514.73C1328.06 1522.17 1331.03 1530.56 1331.03 1538.13L1330.99 1572.94C1330.98 1580.49 1328.04 1585.81 1323.2 1588.3L1957.25 1260.89C1962.08 1258.4 1965.02 1253.08 1965.03 1245.54L1965.03 1210.75C1965.03 1203.18 1962.05 1194.8 1957.25 1187.35L1323.26 1514.73Z" fill="#BA68C8"/>
<path d="M1894.88 1219.22C1903.49 1252.85 1903.36 1268.64 1894.89 1293.3L1872.9 1304.72C1881.38 1280.06 1881.5 1264.27 1872.9 1230.64L1894.88 1219.22Z" fill="#BA68C8"/>
<path d="M1419.76 1464.91C1428.36 1498.53 1428.24 1513.83 1419.76 1538.49L1397.78 1549.8C1406.26 1525.14 1406.38 1509.87 1397.77 1476.25L1419.76 1464.91Z" fill="#BA68C8"/>
<g opacity="0.4">
<path d="M1894.88 1219.22C1903.49 1252.85 1903.36 1268.64 1894.89 1293.3L1872.9 1304.72C1881.38 1280.06 1881.5 1264.27 1872.9 1230.64L1894.88 1219.22Z" fill="white"/>
<path d="M1419.76 1464.91C1428.36 1498.53 1428.24 1513.83 1419.76 1538.49L1397.78 1549.8C1406.26 1525.14 1406.38 1509.87 1397.77 1476.25L1419.76 1464.91Z" fill="white"/>
</g>
<path d="M825.434 1282.08L1262.55 1505.49L1896.59 1178.09L1459.5 954.664L825.434 1282.08Z" fill="#BA68C8"/>
<path opacity="0.2" d="M825.434 1282.08L1262.55 1505.49L1896.59 1178.09L1459.5 954.664L825.434 1282.08Z" fill="white"/>
<path d="M1265.82 1494.32L838.832 1275.16C846.051 1256.73 845.509 1251.14 837.34 1226.61L1262.56 1444.25C1262.56 1444.25 1267.81 1443.91 1265.82 1494.32Z" fill="#F5F5F5"/>
<path d="M1248.46 1424.12C1263.12 1431.69 1275.01 1450.09 1275.01 1465.24V1497.37C1275.01 1512.51 1263.12 1518.65 1248.46 1511.08L825.47 1293.98L825.438 1282.08L1244.8 1496.42C1253.6 1500.96 1260.71 1497.28 1260.71 1488.19L1260.46 1459.58C1260.45 1450.5 1253.31 1439.45 1244.51 1434.91L825.47 1220.51V1207.02L1248.46 1424.12Z" fill="#BA68C8"/>
<path opacity="0.4" d="M1248.46 1424.12C1263.12 1431.69 1275.01 1450.09 1275.01 1465.24V1497.37C1275.01 1512.51 1263.12 1518.65 1248.46 1511.08L825.47 1293.98L825.438 1282.08L1244.8 1496.42C1253.6 1500.96 1260.71 1497.28 1260.71 1488.19L1260.46 1459.58C1260.45 1450.5 1253.31 1439.45 1244.51 1434.91L825.47 1220.51V1207.02L1248.46 1424.12Z" fill="white"/>
<path d="M825.465 1207.05L1459.51 879.641L1882.48 1096.72C1897.13 1104.29 1909.03 1122.71 1909.03 1137.84L1909.03 1169.98C1909.02 1177.52 1906.08 1182.84 1901.25 1185.33L1267.2 1512.74C1272.03 1510.24 1274.97 1504.93 1274.99 1497.39L1275.03 1465.22C1275.03 1450.09 1263.14 1431.66 1248.49 1424.1L825.465 1207.05Z" fill="#BA68C8"/>
<path opacity="0.85" d="M825.465 1207.05L1459.51 879.641L1882.48 1096.72C1897.13 1104.29 1909.03 1122.71 1909.03 1137.84L1909.03 1169.98C1909.02 1177.52 1906.08 1182.84 1901.25 1185.33L1267.2 1512.74C1272.03 1510.24 1274.97 1504.93 1274.99 1497.39L1275.03 1465.22C1275.03 1450.09 1263.14 1431.66 1248.49 1424.1L825.465 1207.05Z" fill="white"/>
<path d="M1267.26 1441.82C1272.06 1449.27 1275.03 1457.66 1275.03 1465.22L1274.99 1497.39C1274.98 1504.93 1272.04 1510.24 1267.2 1512.74L1901.25 1185.33C1906.08 1182.84 1909.02 1177.52 1909.03 1169.98L1909.03 1137.84C1909.03 1130.28 1906.05 1121.89 1901.25 1114.45L1267.26 1441.82Z" fill="#BA68C8"/>
<path opacity="0.6" d="M1267.26 1441.82C1272.06 1449.27 1275.03 1457.66 1275.03 1465.22L1274.99 1497.39C1274.98 1504.93 1272.04 1510.24 1267.2 1512.74L1901.25 1185.33C1906.08 1182.84 1909.02 1177.52 1909.03 1169.98L1909.03 1137.84C1909.03 1130.28 1906.05 1121.89 1901.25 1114.45L1267.26 1441.82Z" fill="white"/>
<path d="M1838.87 1146.31C1847.48 1179.94 1847.35 1193.07 1838.88 1217.73L1816.89 1229.15C1825.37 1204.49 1825.5 1191.35 1816.89 1157.73L1838.87 1146.31Z" fill="white"/>
<path d="M1363.75 1391.89C1372.35 1425.51 1372.23 1438.23 1363.75 1462.89L1341.76 1474.31C1350.24 1449.64 1350.36 1436.93 1341.76 1403.31L1363.75 1391.89Z" fill="white"/>
<path d="M1808.95 693.795V841.855C1809.07 863.192 1829.76 884.499 1871.09 900.769C1953.92 933.38 2088.22 933.38 2171.05 900.769C2212.48 884.43 2233.14 863.057 2233.14 841.687V693.795H2233.11C2233.59 672.157 2212.93 650.481 2171.05 633.976C2088.22 601.365 1953.92 601.365 1871.09 633.976C1829.17 650.481 1808.5 672.157 1808.99 693.795H1808.95Z" fill="#37474F"/>
<path d="M1808.99 693.795C1808.51 672.157 1829.17 650.481 1871.09 633.976C1953.92 601.365 2088.22 601.365 2171.05 633.976C2212.94 650.481 2233.6 672.157 2233.11 693.795H2233.15V761.437C2233.12 744.658 2216.64 732.649 2167.65 748.871C2087.37 775.45 2042.34 819.372 1960.45 841.08C1892.73 859.026 1832.75 852.11 1808.95 829.718V693.795H1808.99Z" fill="#263238"/>
<path d="M1808.96 772.157V788.95C1809.07 810.254 1829.77 831.595 1871.09 847.831C1953.93 880.475 2088.22 880.475 2171.06 847.831C2212.79 831.424 2233.45 809.818 2233.15 788.277V771.986C2233.15 793.36 2212.49 814.729 2171.06 831.067C2088.22 863.678 1953.93 863.678 1871.09 831.067C1829.77 814.802 1809.07 793.498 1808.96 772.157Z" fill="#BA68C8"/>
<path d="M2354.33 646.586L2021.04 504.955L1687.76 646.586V670.189L2021.04 796.082L2354.33 670.189V646.586Z" fill="#37474F"/>
<path opacity="0.2" d="M2021.05 796.082V772.479L2354.33 646.586V670.189L2021.05 796.082Z" fill="#BA68C8"/>
<path opacity="0.2" d="M2021.05 772.479L2349.55 653.585L2354.33 670.189V646.586L2021.05 772.479Z" fill="#BA68C8"/>
<path d="M2021.04 504.955L1687.76 646.586L2021.04 772.479L2354.33 646.586L2021.04 504.955Z" fill="#455A64"/>
<path d="M1842.36 762.552C1842.32 760.598 1841.31 714.552 1846.29 701.48C1851.28 688.38 1870.28 675.094 1909.81 657.05C1953.74 636.997 1994.11 628.484 1998.57 627.578L2000.2 634.123C1995.84 635.011 1956.31 643.345 1913.19 663.03C1876.05 679.983 1857.6 692.513 1853.35 703.656C1849.57 713.577 1849.52 749.433 1849.82 762.413L1842.36 762.552Z" fill="#BA68C8"/>
<path opacity="0.8" d="M1842.36 762.552C1842.32 760.598 1841.31 714.552 1846.29 701.48C1851.28 688.38 1870.28 675.094 1909.81 657.05C1953.74 636.997 1994.11 628.484 1998.57 627.578L2000.2 634.123C1995.84 635.011 1956.31 643.345 1913.19 663.03C1876.05 679.983 1857.6 692.513 1853.35 703.656C1849.57 713.577 1849.52 749.433 1849.82 762.413L1842.36 762.552Z" fill="white"/>
<path d="M1885.66 903.312C1885.66 868.835 1879.3 807.138 1859.22 789.221H1832.73C1812.66 807.138 1806.3 868.838 1806.3 903.312C1806.3 908.587 1810.18 913.859 1817.92 917.882C1825.67 921.906 1835.83 923.918 1845.98 923.918C1856.13 923.918 1866.29 921.906 1874.04 917.882C1881.79 913.862 1885.66 908.587 1885.66 903.312Z" fill="#BA68C8"/>
<path opacity="0.5" d="M1885.66 903.312C1885.66 868.835 1879.3 807.138 1859.22 789.221H1832.73C1812.66 807.138 1806.3 868.838 1806.3 903.312C1806.3 908.587 1810.18 913.859 1817.92 917.882C1825.67 921.906 1835.83 923.918 1845.98 923.918C1856.13 923.918 1866.29 921.906 1874.04 917.882C1881.79 913.862 1885.66 908.587 1885.66 903.312Z" fill="white"/>
<path opacity="0.6" d="M1832.73 789.221C1831.22 790.567 1829.8 792.189 1828.44 794.001C1833.49 798.821 1841.25 800.044 1849 800.604C1856.13 801.121 1864.76 806.781 1868.19 835.052C1871.63 863.32 1878.3 899.427 1865.86 910.355C1853.41 921.284 1825.61 921.196 1811.01 913.044C1812.8 914.783 1815.1 916.42 1817.92 917.886C1825.67 921.91 1835.83 923.921 1845.98 923.921C1856.13 923.921 1866.29 921.91 1874.04 917.886C1881.79 913.862 1885.66 908.587 1885.66 903.316C1885.66 868.838 1879.31 807.142 1859.23 789.224H1832.73V789.221Z" fill="#BA68C8"/>
<path d="M1865.85 776.652C1865.85 786.526 1856.95 794.533 1845.98 794.533C1835 794.533 1826.1 786.529 1826.1 776.652C1826.1 766.775 1835 758.771 1845.98 758.771C1856.95 758.768 1865.85 766.775 1865.85 776.652Z" fill="#BA68C8"/>
<path opacity="0.5" d="M1865.85 776.652C1865.85 786.526 1856.95 794.533 1845.98 794.533C1835 794.533 1826.1 786.529 1826.1 776.652C1826.1 766.775 1835 758.771 1845.98 758.771C1856.95 758.768 1865.85 766.775 1865.85 776.652Z" fill="white"/>
<path opacity="0.4" d="M1857.54 762.15C1862.49 766.862 1863.24 779.18 1852.7 785.394C1842.22 791.575 1831.28 786.761 1827.11 781.992C1829.64 789.239 1837.09 794.532 1845.98 794.532C1856.96 794.532 1865.86 786.525 1865.86 776.651C1865.85 770.663 1862.55 765.399 1857.54 762.15Z" fill="#BA68C8"/>
<path d="M1994.27 619.046C1994.27 615.484 1996.88 611.926 2002.11 609.208C2012.57 603.777 2029.53 603.777 2039.98 609.208C2045.21 611.926 2047.83 615.484 2047.83 619.046C2047.83 620.373 2047.83 625.59 2047.83 626.915C2047.83 630.476 2045.21 634.034 2039.98 636.752C2029.53 642.183 2012.57 642.183 2002.11 636.752C1996.88 634.034 1994.27 630.476 1994.27 626.915C1994.27 625.587 1994.27 620.37 1994.27 619.046Z" fill="#263238"/>
<path d="M2039.98 628.879C2050.44 623.448 2050.44 614.64 2039.98 609.208C2029.52 603.777 2012.57 603.777 2002.11 609.208C1991.65 614.64 1991.65 623.448 2002.11 628.879C2012.57 634.311 2029.52 634.311 2039.98 628.879Z" fill="#37474F"/>
<path d="M960.087 1338.3C983.752 1335.92 1025.07 1332.5 1059.36 1375.62C1098.42 1424.72 1082.11 1495.79 1043.03 1530.7C993.927 1574.55 906.876 1590.07 847.38 1555.75C781.597 1517.8 760.665 1429.97 792.208 1385.32C823.751 1340.68 885.641 1342.49 902.355 1346.04C927.452 1351.38 941.662 1340.15 960.087 1338.3Z" fill="#BA68C8"/>
<path opacity="0.1" d="M877.607 1539.94C943.969 1560.5 1025.1 1538.46 1068.77 1496.19C1062.21 1509.52 1053.44 1521.4 1043.03 1530.7C993.928 1574.55 906.877 1590.07 847.382 1555.75C797.503 1526.98 773.474 1469.55 778.492 1423.99C778.488 1436.55 804.576 1517.31 877.607 1539.94Z" fill="black"/>
<g opacity="0.1">
<path d="M987.964 1353.32C1002.87 1349.84 1027.1 1358.54 1042.09 1375.3C1060.72 1396.12 1068.67 1428.33 1068.7 1452.64C1068.76 1501.66 1022.28 1534.5 1016.56 1531.21C1010.84 1527.91 1042.14 1491.08 1012.69 1446.8C982.8 1401.88 963.554 1359.03 987.964 1353.32Z" fill="white"/>
</g>
<g opacity="0.1">
<path d="M1001.1 1359.23C1017.39 1361.55 1039.41 1380.97 1047.03 1395.93C1054.64 1410.9 1054.38 1421.91 1052.36 1424.1C1048.72 1428.06 1012.25 1405.35 999.746 1394.57C982.025 1379.28 974.851 1355.48 1001.1 1359.23Z" fill="white"/>
</g>
<path opacity="0.2" d="M943.432 1382.8C950.533 1375.65 957.703 1371.49 963.49 1379.73C969.277 1387.97 950.012 1405.28 924.547 1402.61C899.086 1399.93 888.005 1387 887.168 1379.74C887.168 1379.74 901.055 1393.66 917.664 1392.96C929.141 1392.48 939.752 1386.52 943.432 1382.8Z" fill="black"/>
<path d="M923.496 1397.03C923.496 1397.03 917.43 1365.34 923.14 1335.71C928.854 1306.08 944.525 1283.53 949.382 1280.57C954.234 1277.62 962.783 1274.67 975.251 1272.91C987.715 1271.16 1003.98 1276.42 1000.72 1281.34C997.473 1286.27 980.144 1292.24 961.833 1313.87C943.53 1335.49 929.477 1374.23 933.469 1395.49C933.477 1395.5 929.594 1398.97 923.496 1397.03Z" fill="#37474F"/>
<path d="M950.23 1280.1C950.598 1279.9 950.946 1279.69 951.355 1279.48C951.395 1279.46 951.44 1279.44 951.48 1279.42C956.543 1276.87 964.417 1274.44 975.259 1272.92C984.463 1271.62 995.713 1274.15 999.672 1277.54C1000.82 1279.03 998.508 1281.62 987.65 1284.74C976.747 1287.86 964.987 1288.73 954.408 1287C949.264 1286.15 946.664 1282.58 950.23 1280.1Z" fill="#455A64"/>
<path opacity="0.1" d="M933.007 1359.3C938.042 1332.58 963.769 1307.02 982.364 1294.61C976.221 1299.18 969.116 1305.28 961.836 1313.88C943.533 1335.5 929.48 1374.24 933.472 1395.5C933.472 1395.5 929.594 1398.98 923.491 1397.03C923.491 1397.03 922.039 1389.39 921.227 1378.14C923.795 1388.32 928.368 1383.92 933.007 1359.3Z" fill="black"/>
<path d="M921.071 1352.2C906.545 1357.2 880.671 1356.1 863.221 1341.41C842.257 1323.74 848.424 1295.66 848.424 1295.66C848.424 1295.66 874.257 1286.06 898.748 1301.8C916.614 1313.29 923.752 1339.7 921.071 1352.2Z" fill="#BA68C8"/>
<path opacity="0.3" d="M921.071 1352.2C906.545 1357.2 880.671 1356.1 863.221 1341.41C842.257 1323.74 848.424 1295.66 848.424 1295.66C848.424 1295.66 874.257 1286.06 898.748 1301.8C916.614 1313.29 923.752 1339.7 921.071 1352.2Z" fill="black"/>
<path d="M848.422 1295.66C848.422 1295.66 874.255 1286.06 898.745 1301.8C916.612 1313.29 923.753 1339.7 921.068 1352.2C899.74 1315.3 848.422 1295.66 848.422 1295.66Z" fill="#BA68C8"/>
<path opacity="0.2" d="M848.422 1295.66C848.422 1295.66 874.255 1286.06 898.745 1301.8C916.612 1313.29 923.753 1339.7 921.068 1352.2C899.74 1315.3 848.422 1295.66 848.422 1295.66Z" fill="black"/>
<path d="M2056.64 1307.39C2056.64 1318.14 2065.04 1331.21 2075.4 1336.58C2079.41 1338.68 2083.12 1339.28 2086.17 1338.64C2085.57 1339.22 2084.88 1339.7 2084.14 1340.07L2088.64 1337.77C2088.73 1337.71 2088.79 1337.66 2088.89 1337.62C2089.12 1337.5 2089.33 1337.35 2089.56 1337.21C2089.86 1337.02 2090.14 1336.79 2090.39 1336.56C2090.55 1336.42 2090.71 1336.27 2090.88 1336.1C2090.92 1336.09 2090.95 1336.06 2090.97 1336.02C2091.11 1335.88 2091.27 1335.71 2091.4 1335.53C2092.03 1334.8 2092.54 1333.97 2092.95 1333.02C2093.06 1332.75 2093.18 1332.47 2093.27 1332.2C2093.34 1332.06 2093.38 1331.94 2093.41 1331.79C2093.5 1331.54 2093.57 1331.3 2093.61 1331.05C2093.96 1329.78 2094.12 1328.39 2094.12 1326.86C2094.12 1316.11 2085.73 1303.03 2075.39 1297.66C2072.37 1296.08 2069.53 1295.35 2066.99 1295.35H2066.92C2066.53 1295.35 2066.14 1295.37 2065.77 1295.42L2064.68 1295.58C2064.45 1295.62 2064.25 1295.69 2064.04 1295.75L2063.65 1295.85C2063.39 1295.93 2063.14 1296.02 2062.88 1296.14L2062.72 1296.21C2062.49 1296.31 2062.24 1296.41 2062.01 1296.54L2058.08 1298.55C2058.71 1298.27 2059.4 1298.04 2060.11 1297.91C2057.93 1299.95 2056.64 1303.17 2056.64 1307.39ZM2087.52 1338.25C2087.63 1338.21 2087.73 1338.15 2087.84 1338.11C2087.73 1338.16 2087.63 1338.21 2087.52 1338.25Z" fill="#BA68C8"/>
<path d="M1571.87 1551.17L1598.3 1592.51L1602.78 1590.19L2084.14 1340.07C2084.87 1339.7 2085.57 1339.22 2086.17 1338.64C2088.33 1336.58 2089.62 1333.37 2089.62 1329.16C2089.62 1318.41 2081.23 1305.33 2070.87 1299.96C2067.87 1298.38 2065.01 1297.65 2062.5 1297.65C2061.66 1297.65 2060.88 1297.74 2060.12 1297.9C2059.4 1298.03 2058.71 1298.25 2058.09 1298.55C2057.98 1298.59 2057.86 1298.65 2057.77 1298.69L2057.65 1298.75C2057.63 1298.77 2057.63 1298.77 2057.6 1298.77L1571.87 1551.17Z" fill="#F0F0F0"/>
<path d="M1585.12 1552.35C1574.77 1546.97 1566.38 1551.33 1566.38 1562.08C1566.38 1572.84 1574.77 1585.91 1585.12 1591.28C1595.48 1596.66 1603.87 1592.3 1603.87 1581.55C1603.86 1570.8 1595.48 1557.72 1585.12 1552.35Z" fill="#BA68C8"/>
<path d="M1851.19 1423.87C1851.21 1423.83 1851.26 1423.81 1851.31 1423.81L1851.93 1423.48C1853.08 1423.02 1854.61 1423.16 1856.29 1424.04C1859.96 1425.94 1862.96 1430.61 1862.96 1434.43C1862.96 1436.11 1862.38 1437.36 1861.41 1438.05C1861.41 1438.07 1861.39 1438.07 1861.39 1438.07L1860.58 1438.48L1575.74 1586.41L1557.01 1576.68L1851.19 1423.87Z" fill="#455A64"/>
<path d="M1602.19 1572.67L1575.74 1586.41L1557.01 1576.68L1592.81 1558.08C1596.97 1562.18 1600.31 1567.38 1602.19 1572.67Z" fill="#37474F"/>
<path d="M1535.41 1588.65L1535.38 1588.63L1557.08 1567.17C1557.27 1566.96 1557.46 1566.76 1557.66 1566.59C1560.07 1564.42 1563.95 1564.24 1568.35 1566.51C1575.66 1570.31 1581.6 1579.55 1581.6 1587.15C1581.6 1591.54 1579.63 1594.42 1576.56 1595.35C1576.47 1595.37 1576.41 1595.39 1576.35 1595.41L1575.48 1595.58L1543.67 1601.82L1543.66 1601.81C1542.68 1602 1541.51 1601.8 1540.24 1601.14C1536.9 1599.42 1534.2 1595.21 1534.2 1591.75C1534.2 1590.35 1534.66 1589.3 1535.41 1588.65Z" fill="#BA68C8"/>
<path opacity="0.1" d="M1535.41 1588.65L1535.38 1588.63L1557.08 1567.17C1557.27 1566.96 1557.46 1566.76 1557.66 1566.59C1560.07 1564.42 1563.95 1564.24 1568.35 1566.51C1575.66 1570.31 1581.6 1579.55 1581.6 1587.15C1581.6 1591.54 1579.63 1594.42 1576.56 1595.35C1576.47 1595.37 1576.41 1595.39 1576.35 1595.41L1575.48 1595.58L1543.67 1601.82L1543.66 1601.81C1542.68 1602 1541.51 1601.8 1540.24 1601.14C1536.9 1599.42 1534.2 1595.21 1534.2 1591.75C1534.2 1590.35 1534.66 1589.3 1535.41 1588.65Z" fill="black"/>
<path d="M1534.2 1591.75C1534.2 1595.2 1536.9 1599.41 1540.24 1601.14C1541.5 1601.8 1542.69 1602 1543.64 1601.8L1543.66 1601.81L1559.73 1598.66C1562.26 1598.17 1563.93 1596.02 1563.93 1592.59C1563.93 1587.06 1559.61 1580.32 1554.29 1577.55C1551.14 1575.91 1548.34 1576.04 1546.57 1577.57L1546.14 1578L1535.38 1588.63L1535.4 1588.65C1534.65 1589.3 1534.2 1590.35 1534.2 1591.75Z" fill="#BA68C8"/>
<path opacity="0.1" d="M1540.23 1588.61C1536.9 1586.88 1534.2 1588.28 1534.2 1591.74C1534.2 1595.2 1536.9 1599.41 1540.23 1601.14C1543.56 1602.86 1546.26 1601.46 1546.26 1598C1546.26 1594.55 1543.56 1590.34 1540.23 1588.61Z" fill="black"/>
<path d="M2017.6 1337.31C2018.81 1336.67 2020.47 1336.77 2022.31 1337.72C2025.98 1339.64 2028.96 1344.26 2028.94 1348.06C2028.94 1349.99 2028.2 1351.34 2026.97 1351.94L1861.41 1438.04C1862.38 1437.36 1862.96 1436.11 1862.96 1434.43C1862.96 1430.61 1859.96 1425.94 1856.29 1424.03C1854.6 1423.16 1853.08 1423.02 1851.93 1423.47L2017.6 1337.31Z" fill="#FAFAFA"/>
<path d="M2015.66 1341.17C2015.66 1344.97 2018.64 1349.6 2022.31 1351.51C2024.13 1352.44 2025.77 1352.55 2026.95 1351.92C2028.17 1351.32 2028.93 1350 2028.93 1348.06C2028.95 1344.27 2025.98 1339.64 2022.3 1337.72C2020.46 1336.77 2018.8 1336.67 2017.6 1337.31C2016.4 1337.94 2015.66 1339.28 2015.66 1341.17Z" fill="#F5F5F5"/>
<path d="M2030.51 1315.64L2030.5 1315.63L2030.71 1315.52C2030.81 1315.47 2030.9 1315.41 2031.01 1315.37L2058.65 1301.02C2058.86 1300.9 2059.08 1300.79 2059.3 1300.69L2059.45 1300.6L2059.46 1300.62C2062.47 1299.29 2066.48 1299.6 2070.89 1301.89C2080.21 1306.73 2087.76 1318.5 2087.76 1328.17C2087.76 1333.04 2085.85 1336.45 2082.77 1338.02L2054.78 1352.55C2054.73 1352.58 2054.68 1352.61 2054.63 1352.63L2054.46 1352.72L2054.46 1352.7C2051.42 1354.16 2047.32 1353.89 2042.78 1351.54C2033.46 1346.7 2025.91 1334.93 2025.91 1325.26C2025.91 1320.61 2027.66 1317.3 2030.51 1315.64Z" fill="#BA68C8"/>
<path opacity="0.05" d="M2030.51 1315.64L2030.5 1315.63L2030.71 1315.52C2030.81 1315.47 2030.9 1315.41 2031.01 1315.37L2058.65 1301.02C2058.86 1300.9 2059.08 1300.79 2059.3 1300.69L2059.45 1300.6L2059.46 1300.62C2062.47 1299.29 2066.48 1299.6 2070.89 1301.89C2080.21 1306.73 2087.76 1318.5 2087.76 1328.17C2087.76 1333.04 2085.85 1336.45 2082.77 1338.02L2054.78 1352.55C2054.73 1352.58 2054.68 1352.61 2054.63 1352.63L2054.46 1352.72L2054.46 1352.7C2051.42 1354.16 2047.32 1353.89 2042.78 1351.54C2033.46 1346.7 2025.91 1334.93 2025.91 1325.26C2025.91 1320.61 2027.66 1317.3 2030.51 1315.64Z" fill="black"/>
<path opacity="0.1" d="M2042.77 1316.5C2033.46 1311.66 2025.91 1315.58 2025.91 1325.26C2025.91 1334.93 2033.46 1346.7 2042.77 1351.54C2052.09 1356.38 2059.64 1352.45 2059.64 1342.78C2059.64 1333.1 2052.09 1321.33 2042.77 1316.5Z" fill="black"/>
<path d="M1526.54 1597.68L1537.98 1591.5L1537.99 1591.51C1538.55 1591.19 1539.34 1591.2 1540.23 1591.67C1541.93 1592.55 1543.32 1594.71 1543.32 1596.48C1543.32 1597.37 1542.97 1597.99 1542.41 1598.28L1531.01 1604.48C1530.38 1604.8 1529.66 1604.97 1528.9 1604.97C1526.47 1604.97 1524.5 1603.21 1524.5 1601.02C1524.5 1599.61 1525.32 1598.38 1526.54 1597.68Z" fill="#455A64"/>
<path d="M1525.88 1598.15L1525.91 1598.13C1526.09 1597.98 1526.31 1597.82 1526.51 1597.7C1526.54 1597.7 1526.54 1597.68 1526.56 1597.68C1527.09 1597.49 1527.79 1597.59 1528.55 1597.99C1530.25 1598.89 1531.64 1601.02 1531.64 1602.8C1531.64 1603.67 1531.32 1604.28 1530.76 1604.57C1530.69 1604.61 1530.6 1604.65 1530.53 1604.67C1530.46 1604.71 1530.3 1604.76 1530.3 1604.76C1529.87 1604.93 1529.4 1604.98 1528.89 1604.98C1526.47 1604.98 1524.51 1603.2 1524.51 1601.02C1524.51 1599.88 1525.03 1598.86 1525.88 1598.15Z" fill="#263238"/>
<path d="M2260.81 1318.17L2335.15 1305.07C2337.32 1304.69 2338.78 1306.99 2337.33 1308.48L2286.89 1359.85L2260.81 1318.17Z" fill="#FFA8A7"/>
<path d="M2337.32 1308.48C2338.78 1306.99 2337.31 1304.69 2335.15 1305.07L2320.63 1307.63C2324.7 1309.89 2327.01 1314.01 2326.63 1318.3L2326.53 1319.46L2337.32 1308.48Z" fill="#263238"/>
<path d="M1921.52 1548.07L1927.61 1544.93L1934.96 1541.16L2286.88 1359.86C2289.64 1352.59 2288.3 1344.64 2284.81 1337.68C2279.54 1327.06 2269.3 1318.69 2260.82 1318.2L1909.06 1499.43L1895.03 1506.67C1904.41 1502.43 1930.86 1543.71 1921.52 1548.07Z" fill="#455A64"/>
<path d="M1944.72 1536.19L1958.29 1529.16C1962.3 1527.24 1960 1518.39 1955.31 1509.23C1949.11 1497.05 1936.91 1485.26 1931.59 1487.8L1921.59 1492.96L1918.04 1494.87C1923.36 1492.33 1935.57 1504.11 1941.77 1516.29C1946.25 1525.07 1948.52 1533.62 1945.12 1535.94L1945.08 1535.96C1945 1536.06 1944.88 1536.13 1944.72 1536.19Z" fill="#EBEBEB"/>
<path d="M1948.09 1534.41C1957.41 1529.96 1930.73 1488.64 1921.41 1493.08L1907.8 1500.08C1917.12 1495.63 1943.8 1536.96 1934.48 1541.4L1948.09 1534.41Z" fill="#BA68C8"/>
<path d="M1921.53 1548.07L1934.96 1541.16C1944.15 1536.86 1918.78 1496.78 1909.06 1499.42C1908.89 1499.45 1908.7 1499.53 1908.51 1499.61L1895.04 1506.66C1904.41 1502.43 1930.86 1543.71 1921.53 1548.07Z" fill="#EBEBEB"/>
<path opacity="0.15" d="M2337.65 1306.23L2335.15 1305.07L2281.2 1331.61L1914.13 1520.79C1913.6 1520.04 1913.18 1519.99 1912.83 1520.5C1920.76 1531.62 1926.74 1545.63 1921.52 1548.07L1927.6 1544.93L1934.96 1541.16L2286.88 1359.86L2286.89 1359.85L2337.32 1308.48C2338 1307.79 2338.02 1306.92 2337.65 1306.23Z" fill="black"/>
<path d="M1864.54 1577.4L1921.52 1548.07C1925.52 1546.21 1923.3 1537.43 1918.7 1528.32C1912.54 1516.12 1900.39 1504.23 1895.03 1506.66C1895.03 1506.66 1895 1506.65 1894.96 1506.68L1837.8 1536.13C1826.45 1542.02 1836.88 1564.2 1849.55 1574.11C1854.27 1577.85 1859.54 1579.51 1864.54 1577.4Z" fill="#F28F8F"/>
<path opacity="0.1" d="M1867.94 1561.5C1864.68 1549.95 1854.27 1538.62 1844.7 1536.19C1841.19 1535.31 1838.28 1535.75 1836.17 1537.22C1827.6 1544.38 1837.57 1564.74 1849.56 1574.11C1854.18 1577.78 1859.33 1579.42 1864.25 1577.49C1868.52 1575.25 1870.16 1569.34 1867.94 1561.5Z" fill="black"/>
<path d="M1626.14 325.481L1687.37 296.672C1687.37 296.672 1726.26 305.607 1791.18 302.151C1887.22 297.04 1943.28 260.558 1929 209.32C1914.37 156.816 1850.15 136.214 1735.68 140.234C1592.46 145.266 1557.72 232.6 1643.24 284.212L1626.14 325.481Z" fill="#BA68C8"/>
<path opacity="0.7" d="M1626.14 325.481L1687.37 296.672C1687.37 296.672 1726.26 305.607 1791.18 302.151C1887.22 297.04 1943.28 260.558 1929 209.32C1914.37 156.816 1850.15 136.214 1735.68 140.234C1592.46 145.266 1557.72 232.6 1643.24 284.212L1626.14 325.481Z" fill="white"/>
<path d="M1691.81 236.787C1700.24 236.787 1707.08 230.639 1707.08 223.054C1707.08 215.469 1700.24 209.32 1691.81 209.32C1683.38 209.32 1676.55 215.469 1676.55 223.054C1676.55 230.639 1683.38 236.787 1691.81 236.787Z" fill="white"/>
<path d="M1763.62 236.787C1772.05 236.787 1778.88 230.639 1778.88 223.054C1778.88 215.469 1772.05 209.32 1763.62 209.32C1755.19 209.32 1748.35 215.469 1748.35 223.054C1748.35 230.639 1755.19 236.787 1763.62 236.787Z" fill="white"/>
<path d="M1835.42 236.787C1843.85 236.787 1850.69 230.639 1850.69 223.054C1850.69 215.469 1843.85 209.32 1835.42 209.32C1826.99 209.32 1820.16 215.469 1820.16 223.054C1820.16 230.639 1826.99 236.787 1835.42 236.787Z" fill="white"/>
<path d="M856.277 1157.09C856.277 1166.5 864.102 1172.53 873.76 1177.54L1269.48 1383.08C1279.13 1388.09 1294.78 1388.09 1304.44 1383.08L1942.83 1051.51C1952.48 1046.49 1960.31 1040.04 1960.31 1030.63C1960.31 1021.22 1952.48 1015.4 1942.83 1010.38L1547.11 804.852C1537.46 799.839 1521.8 799.839 1512.15 804.852L873.756 1136.42C864.098 1141.44 856.273 1147.68 856.277 1157.09Z" fill="#37474F"/>
<path d="M873.755 1154.58L1269.48 1360.11C1279.13 1365.13 1294.78 1365.13 1304.44 1360.11L1942.83 1028.55C1952.48 1023.53 1952.48 1015.4 1942.83 1010.38L1547.11 804.852C1537.46 799.839 1521.8 799.839 1512.14 804.852L873.755 1136.42C864.097 1141.44 864.097 1149.57 873.755 1154.58Z" fill="#455A64"/>
<path d="M1286.97 1363.9V1386.83C1280.63 1386.83 1274.29 1385.59 1269.49 1383.09L873.756 1177.55C864.107 1172.53 856.277 1166.5 856.277 1157.09C856.277 1148.27 863.314 1142.12 872.393 1137.12C864.895 1141.89 864.754 1149.9 873.756 1154.59L1269.49 1360.13C1274.29 1362.63 1280.63 1363.9 1286.97 1363.9Z" fill="#263238"/>
<path d="M848.678 1138.85C841.015 1135.68 838.932 1130.2 838.2 1120.55L803.895 669.056C803.163 659.408 810.398 647.519 820.051 642.506L1458.44 310.938C1468.09 305.925 1475.17 303.2 1484.08 308.683C1493.41 314.416 1493.19 317.199 1493.92 326.847L1528.22 778.341C1528.96 787.989 1521.72 799.878 1512.07 804.891L873.678 1136.46C864.025 1141.47 858.557 1142.95 848.678 1138.85Z" fill="#37474F"/>
<path d="M1493.93 326.829C1493.2 317.199 1484.77 313.449 1475.12 318.44L836.718 650.025C831.894 652.536 827.651 656.77 824.76 661.58L808.103 654.042H808.07C810.994 649.232 815.236 644.994 820.061 642.487L1458.43 310.931C1468.08 305.914 1475.2 303.142 1484.07 308.672C1493.44 314.515 1493.2 317.199 1493.93 326.829Z" fill="#455A64"/>
<path d="M872.384 1137.12C863.596 1141.79 858.031 1142.37 848.678 1138.84C841.528 1136.14 838.94 1130.2 838.208 1120.55L803.903 669.042C803.539 664.221 805.144 658.833 808.096 654.057L824.749 661.536L824.753 661.569C821.846 666.382 820.196 671.734 820.56 676.558L854.865 1128.07C855.548 1137.01 864.138 1141.51 872.384 1137.12Z" fill="#263238"/>
<path d="M847.814 667.288L1462.17 348.29C1467.96 345.282 1473.01 347.537 1473.45 353.325L1505.46 774.522C1505.9 780.314 1501.55 787.444 1495.76 790.453L881.412 1109.45C875.617 1112.46 870.566 1110.2 870.125 1104.41L838.121 683.223C837.68 677.431 842.019 670.297 847.814 667.288Z" fill="black"/>
<path d="M847.814 667.288C842.019 670.297 837.68 677.431 838.121 683.219L869.595 1097.39L1476.93 782.049C1482.72 779.04 1487.06 771.906 1486.62 766.118L1455.15 351.936L847.814 667.288Z" fill="#BA68C8"/>
<path opacity="0.8" d="M847.814 667.288C842.019 670.297 837.68 677.431 838.121 683.219L869.595 1097.39L1476.93 782.049C1482.72 779.04 1487.06 771.906 1486.62 766.118L1455.15 351.936L847.814 667.288Z" fill="white"/>
<path d="M927.751 1139.09L1514.4 834.397C1518.96 832.032 1526.34 832.032 1530.89 834.397L1552.26 845.18C1556.81 847.544 1556.81 851.379 1552.26 853.74L965.518 1158.39C960.964 1160.75 953.584 1160.75 949.031 1158.39L927.751 1147.65C923.198 1145.29 923.198 1141.45 927.751 1139.09Z" fill="#263238"/>
<path d="M985.36 1169.66L1572.01 864.964C1576.56 862.599 1583.3 862.268 1587.07 864.225L1739.77 943.538C1743.53 945.495 1742.9 948.994 1738.34 951.359L1152.38 1255.64C1147.83 1258.01 1141.08 1258.35 1137.3 1256.4L983.957 1177.46C980.18 1175.52 980.807 1172.03 985.36 1169.66Z" fill="#263238"/>
<path d="M1493.7 992.941L1512.06 983.403C1512.84 982.995 1512.92 982.377 1512.22 982.016L1494.65 972.889C1493.95 972.529 1492.76 972.565 1491.98 972.972L1473.61 982.511C1472.83 982.915 1472.76 983.537 1473.45 983.897L1491.02 993.025C1491.72 993.385 1492.92 993.345 1493.7 992.941ZM1466.88 959.934L1448.51 969.473C1447.73 969.88 1447.66 970.499 1448.35 970.859L1465.93 979.986C1466.62 980.347 1467.81 980.31 1468.59 979.906L1486.96 970.364C1487.74 969.96 1487.82 969.338 1487.12 968.978L1469.54 959.85C1468.85 959.49 1467.66 959.526 1466.88 959.934ZM1407.54 990.755L1376.45 1006.9C1375.67 1007.3 1375.6 1007.93 1376.29 1008.28L1393.87 1017.41C1394.57 1017.77 1395.76 1017.73 1396.54 1017.33L1427.62 1001.18C1428.4 1000.78 1428.47 1000.16 1427.78 999.795L1410.21 990.668C1409.51 990.311 1408.32 990.348 1407.54 990.755ZM1440.03 973.875L1421.66 983.417C1420.88 983.821 1420.81 984.443 1421.51 984.803L1439.08 993.931C1439.77 994.291 1440.97 994.255 1441.75 993.851L1460.11 984.312C1460.89 983.905 1460.97 983.286 1460.27 982.926L1442.7 973.798C1442.01 973.431 1440.81 973.471 1440.03 973.875ZM1367.98 1011.3L1349.61 1020.84C1348.83 1021.25 1348.76 1021.87 1349.45 1022.23L1367.03 1031.36C1367.72 1031.72 1368.91 1031.68 1369.69 1031.28L1388.06 1021.73C1388.84 1021.33 1388.91 1020.71 1388.22 1020.35L1370.65 1011.22C1369.95 1010.86 1368.75 1010.89 1367.98 1011.3ZM1341.13 1025.24L1322.76 1034.78C1321.98 1035.19 1321.91 1035.81 1322.6 1036.17L1340.18 1045.3C1340.87 1045.66 1342.07 1045.62 1342.85 1045.22L1361.21 1035.68C1361.99 1035.27 1362.06 1034.65 1361.37 1034.29L1343.8 1025.17C1343.11 1024.8 1341.91 1024.84 1341.13 1025.24ZM1410.01 1062.49L1428.38 1052.94C1429.16 1052.54 1429.23 1051.92 1428.53 1051.56L1410.96 1042.43C1410.27 1042.07 1409.07 1042.11 1408.29 1042.51L1389.93 1052.05C1389.15 1052.45 1389.07 1053.07 1389.77 1053.43L1407.34 1062.56C1408.03 1062.93 1409.23 1062.89 1410.01 1062.49ZM1383.16 1076.43L1401.53 1066.89C1402.31 1066.48 1402.38 1065.87 1401.69 1065.5L1384.12 1056.38C1383.42 1056.02 1382.23 1056.06 1381.45 1056.46L1363.08 1066C1362.3 1066.4 1362.23 1067.03 1362.92 1067.39L1380.5 1076.51C1381.19 1076.87 1382.38 1076.83 1383.16 1076.43ZM1356.32 1090.37L1374.68 1080.83C1375.47 1080.43 1375.53 1079.81 1374.84 1079.45L1357.27 1070.32C1356.58 1069.96 1355.38 1070 1354.6 1070.41L1336.23 1079.94C1335.45 1080.35 1335.39 1080.97 1336.08 1081.33L1353.65 1090.46C1354.34 1090.81 1355.53 1090.78 1356.32 1090.37ZM1329.47 1104.32L1347.84 1094.78C1348.62 1094.37 1348.69 1093.75 1347.99 1093.39L1330.42 1084.26C1329.73 1083.9 1328.53 1083.94 1327.75 1084.34L1309.39 1093.88C1308.61 1094.29 1308.53 1094.91 1309.23 1095.27L1326.8 1104.4C1327.5 1104.76 1328.69 1104.72 1329.47 1104.32ZM1466.85 1006.89L1485.22 997.347C1486 996.943 1486.07 996.321 1485.38 995.961L1467.8 986.833C1467.11 986.473 1465.91 986.509 1465.13 986.917L1446.76 996.456C1445.98 996.863 1445.91 997.482 1446.6 997.842L1464.17 1006.97C1464.88 1007.33 1466.07 1007.29 1466.85 1006.89ZM1436.85 1048.54L1477.83 1027.26C1478.61 1026.85 1478.68 1026.24 1477.98 1025.88L1435.31 1003.71C1434.61 1003.35 1433.42 1003.39 1432.64 1003.79L1411.44 1014.8C1410.66 1015.21 1410.59 1015.83 1411.28 1016.19L1433.88 1027.92C1434.57 1028.28 1434.5 1028.9 1433.72 1029.31L1416.77 1038.11C1415.99 1038.52 1415.91 1039.14 1416.61 1039.5L1434.18 1048.63C1434.88 1048.98 1436.07 1048.95 1436.85 1048.54ZM1314.28 1039.19L1295.92 1048.73C1295.14 1049.13 1295.07 1049.76 1295.76 1050.12L1313.33 1059.24C1314.02 1059.6 1315.22 1059.57 1316 1059.16L1334.37 1049.62C1335.15 1049.21 1335.22 1048.6 1334.52 1048.24L1316.95 1039.11C1316.26 1038.75 1315.06 1038.78 1314.28 1039.19ZM1287.44 1053.13L1269.07 1062.67C1268.29 1063.08 1268.22 1063.7 1268.91 1064.06L1286.49 1073.18C1287.18 1073.54 1288.37 1073.51 1289.15 1073.1L1307.52 1063.56C1308.3 1063.16 1308.37 1062.54 1307.68 1062.18L1290.1 1053.05C1289.41 1052.69 1288.22 1052.72 1287.44 1053.13ZM1138.88 1202C1139.57 1202.36 1140.77 1202.33 1141.55 1201.92L1159.92 1192.38C1160.7 1191.98 1160.77 1191.35 1160.08 1190.99L1142.51 1181.87C1141.81 1181.51 1140.62 1181.54 1139.84 1181.95L1121.47 1191.49C1120.69 1191.89 1120.62 1192.51 1121.31 1192.87L1138.88 1202ZM1072.67 1164.68L1054.31 1174.22C1053.53 1174.62 1053.45 1175.24 1054.15 1175.6L1071.72 1184.73C1072.42 1185.09 1073.61 1185.05 1074.39 1184.65L1092.76 1175.11C1093.54 1174.7 1093.61 1174.08 1092.91 1173.72L1075.34 1164.6C1074.65 1164.24 1073.46 1164.27 1072.67 1164.68ZM1106.71 1192.63C1107.4 1192.99 1108.6 1192.95 1109.38 1192.55L1127.75 1183.01C1128.53 1182.6 1128.6 1181.98 1127.9 1181.62L1110.33 1172.49C1109.64 1172.13 1108.44 1172.17 1107.66 1172.58L1089.3 1182.12C1088.52 1182.52 1088.44 1183.14 1089.14 1183.5L1106.71 1192.63ZM1180.78 1207.62L1199.15 1198.08C1199.93 1197.67 1200 1197.06 1199.31 1196.69L1181.74 1187.57C1181.05 1187.21 1179.85 1187.24 1179.07 1187.65L1160.7 1197.19C1159.92 1197.59 1159.85 1198.22 1160.54 1198.58L1178.11 1207.7C1178.81 1208.06 1180 1208.02 1180.78 1207.62ZM1151.27 1221.64C1151.96 1222 1153.16 1221.97 1153.93 1221.56L1172.3 1212.02C1173.08 1211.62 1173.15 1211 1172.46 1210.64L1154.89 1201.51C1154.19 1201.15 1153 1201.18 1152.22 1201.59L1133.85 1211.13C1133.07 1211.53 1133 1212.16 1133.69 1212.51L1151.27 1221.64ZM1099.52 1150.73L1081.15 1160.27C1080.37 1160.68 1080.3 1161.3 1080.99 1161.66L1098.56 1170.79C1099.26 1171.15 1100.45 1171.11 1101.23 1170.7L1119.6 1161.16C1120.38 1160.76 1120.45 1160.14 1119.76 1159.78L1102.19 1150.65C1101.49 1150.29 1100.3 1150.33 1099.52 1150.73ZM1233.75 1081.02L1215.38 1090.56C1214.6 1090.96 1214.53 1091.58 1215.22 1091.94L1232.79 1101.07C1233.49 1101.43 1234.68 1101.39 1235.46 1100.99L1253.83 1091.45C1254.61 1091.04 1254.68 1090.42 1253.99 1090.06L1236.41 1080.93C1235.72 1080.57 1234.53 1080.61 1233.75 1081.02ZM1126.36 1136.79L1107.99 1146.33C1107.21 1146.73 1107.15 1147.36 1107.84 1147.72L1125.41 1156.84C1126.1 1157.2 1127.3 1157.17 1128.08 1156.76L1146.45 1147.23C1147.23 1146.82 1147.29 1146.2 1146.6 1145.84L1129.03 1136.71C1128.34 1136.35 1127.15 1136.38 1126.36 1136.79ZM1260.59 1067.07L1242.22 1076.61C1241.44 1077.02 1241.37 1077.64 1242.07 1078L1259.64 1087.13C1260.33 1087.49 1261.52 1087.45 1262.31 1087.04L1280.67 1077.5C1281.45 1077.1 1281.52 1076.48 1280.83 1076.12L1263.26 1066.99C1262.57 1066.63 1261.37 1066.67 1260.59 1067.07ZM1206.9 1094.96L1188.54 1104.5C1187.75 1104.9 1187.68 1105.53 1188.38 1105.89L1205.95 1115.01C1206.64 1115.37 1207.84 1115.33 1208.62 1114.93L1226.99 1105.39C1227.77 1104.99 1227.84 1104.37 1227.15 1104.01L1209.57 1094.88C1208.88 1094.52 1207.68 1094.55 1206.9 1094.96ZM1180.06 1108.9L1161.69 1118.45C1160.91 1118.85 1160.83 1119.47 1161.53 1119.83L1179.1 1128.96C1179.79 1129.32 1180.99 1129.28 1181.77 1128.88L1200.14 1119.34C1200.92 1118.93 1200.99 1118.31 1200.3 1117.95L1182.72 1108.82C1182.03 1108.46 1180.84 1108.5 1180.06 1108.9ZM1153.21 1122.85L1134.84 1132.39C1134.06 1132.79 1133.99 1133.41 1134.69 1133.77L1152.26 1142.9C1152.95 1143.26 1154.15 1143.22 1154.93 1142.82L1173.29 1133.28C1174.07 1132.87 1174.14 1132.25 1173.45 1131.89L1155.88 1122.77C1155.18 1122.41 1153.99 1122.44 1153.21 1122.85ZM1275.78 1132.2L1294.14 1122.66C1294.92 1122.26 1295 1121.64 1294.3 1121.28L1276.73 1112.15C1276.03 1111.79 1274.84 1111.82 1274.06 1112.23L1255.69 1121.77C1254.91 1122.18 1254.84 1122.8 1255.53 1123.16L1273.1 1132.28C1273.8 1132.64 1275 1132.61 1275.78 1132.2ZM1526.22 929.109L1507.85 938.648C1507.07 939.052 1507 939.674 1507.7 940.034L1525.27 949.162C1525.96 949.522 1527.16 949.486 1527.94 949.078L1546.3 939.539C1547.08 939.135 1547.15 938.513 1546.46 938.153L1528.89 929.025C1528.2 928.669 1527 928.705 1526.22 929.109ZM1493.72 945.989L1475.36 955.528C1474.58 955.932 1474.51 956.55 1475.2 956.914L1492.77 966.042C1493.46 966.402 1494.66 966.366 1495.44 965.962L1513.81 956.423C1514.59 956.016 1514.66 955.397 1513.96 955.037L1496.39 945.909C1495.7 945.546 1494.5 945.582 1493.72 945.989ZM1553.07 915.168L1534.7 924.707C1533.92 925.111 1533.85 925.733 1534.54 926.093L1552.12 935.217C1552.81 935.577 1554 935.541 1554.78 935.134L1573.15 925.595C1573.93 925.187 1574 924.569 1573.31 924.209L1555.73 915.081C1555.04 914.724 1553.85 914.761 1553.07 915.168ZM1404.68 1039.17L1423.05 1029.63C1423.83 1029.23 1423.9 1028.61 1423.21 1028.25L1405.64 1019.12C1404.94 1018.76 1403.75 1018.8 1402.97 1019.2L1384.6 1028.74C1383.82 1029.15 1383.75 1029.77 1384.44 1030.13L1402.02 1039.26C1402.71 1039.62 1403.9 1039.58 1404.68 1039.17ZM1582.58 901.14C1581.89 900.78 1580.69 900.816 1579.91 901.22L1561.55 910.759C1560.77 911.166 1560.69 911.785 1561.39 912.145L1578.96 921.273C1579.65 921.633 1580.85 921.597 1581.62 921.193L1599.99 911.654C1600.77 911.25 1600.85 910.628 1600.15 910.268L1582.58 901.14ZM1302.62 1118.26L1320.99 1108.72C1321.77 1108.31 1321.84 1107.69 1321.15 1107.33L1303.58 1098.21C1302.89 1097.85 1301.69 1097.88 1300.91 1098.29L1282.54 1107.83C1281.76 1108.23 1281.69 1108.86 1282.38 1109.22L1299.96 1118.34C1300.65 1118.7 1301.84 1118.66 1302.62 1118.26ZM1631.83 947.27L1650.2 937.731C1650.98 937.327 1651.05 936.705 1650.36 936.345L1632.79 927.221C1632.09 926.861 1630.9 926.897 1630.12 927.305L1611.75 936.843C1610.97 937.247 1610.9 937.869 1611.59 938.229L1629.17 947.357C1629.86 947.714 1631.05 947.677 1631.83 947.27ZM1579.89 948.176L1598.25 938.633C1599.03 938.23 1599.1 937.611 1598.41 937.251L1580.84 928.123C1580.15 927.763 1578.95 927.799 1578.17 928.203L1559.81 937.742C1559.03 938.149 1558.95 938.768 1559.65 939.128L1577.22 948.256C1577.91 948.62 1579.1 948.583 1579.89 948.176ZM1607.68 914.179C1606.99 913.818 1605.8 913.855 1605.01 914.259L1586.65 923.798C1585.87 924.201 1585.8 924.823 1586.49 925.184L1604.06 934.311C1604.75 934.671 1605.95 934.635 1606.73 934.231L1625.09 924.693C1625.87 924.285 1625.95 923.667 1625.25 923.306L1607.68 914.179ZM1613.34 911.246L1656.01 933.413C1656.71 933.773 1657.9 933.737 1658.68 933.329L1677.05 923.79C1677.83 923.383 1677.9 922.764 1677.21 922.404L1634.53 900.238C1633.84 899.878 1632.64 899.914 1631.86 900.322L1613.5 909.86C1612.71 910.264 1612.64 910.886 1613.34 911.246ZM1551.33 942.148L1532.96 951.686C1532.18 952.09 1532.11 952.712 1532.8 953.073L1550.37 962.197C1551.07 962.557 1552.26 962.52 1553.04 962.113L1571.41 952.574C1572.19 952.167 1572.26 951.548 1571.57 951.188L1554 942.06C1553.3 941.707 1552.11 941.744 1551.33 942.148ZM1349.28 1047.09L1330.91 1056.63C1330.13 1057.04 1330.06 1057.66 1330.75 1058.02L1348.33 1067.15C1349.02 1067.51 1350.21 1067.47 1350.99 1067.07L1369.36 1057.53C1370.14 1057.12 1370.21 1056.5 1369.52 1056.14L1351.95 1047.01C1351.25 1046.65 1350.06 1046.69 1349.28 1047.09ZM1602.32 961.298C1603.01 961.658 1604.21 961.622 1604.99 961.218L1623.36 951.679C1624.14 951.272 1624.21 950.653 1623.52 950.293L1605.94 941.165C1605.25 940.805 1604.05 940.842 1603.28 941.245L1584.91 950.788C1584.13 951.192 1584.05 951.814 1584.75 952.174L1602.32 961.298ZM1376.12 1033.14L1357.76 1042.68C1356.98 1043.09 1356.91 1043.71 1357.6 1044.07L1375.17 1053.2C1375.86 1053.56 1377.06 1053.52 1377.84 1053.12L1396.21 1043.58C1396.99 1043.17 1397.06 1042.55 1396.36 1042.19L1378.79 1033.06C1378.1 1032.7 1376.9 1032.74 1376.12 1033.14ZM1165.73 1188.06C1166.42 1188.42 1167.62 1188.38 1168.4 1187.97L1186.76 1178.44C1187.54 1178.03 1187.61 1177.41 1186.92 1177.05L1169.35 1167.92C1168.66 1167.56 1167.46 1167.6 1166.69 1168L1148.32 1177.54C1147.54 1177.94 1147.47 1178.57 1148.16 1178.93L1165.73 1188.06ZM1134.52 1158.63L1116.15 1168.18C1115.37 1168.58 1115.3 1169.2 1115.99 1169.56L1133.56 1178.69C1134.26 1179.05 1135.45 1179.01 1136.23 1178.61L1154.6 1169.07C1155.38 1168.66 1155.45 1168.05 1154.76 1167.69L1137.18 1158.56C1136.49 1158.19 1135.3 1158.23 1134.52 1158.63ZM1195.24 1174.03L1213.61 1164.49C1214.39 1164.09 1214.46 1163.47 1213.77 1163.11L1196.19 1153.98C1195.5 1153.62 1194.3 1153.66 1193.52 1154.06L1175.15 1163.6C1174.37 1164 1174.3 1164.63 1175 1164.99L1192.57 1174.11C1193.27 1174.47 1194.46 1174.44 1195.24 1174.03ZM1222.09 1160.09L1240.46 1150.55C1241.24 1150.14 1241.31 1149.52 1240.61 1149.16L1223.04 1140.04C1222.35 1139.68 1221.15 1139.71 1220.37 1140.12L1202.01 1149.66C1201.23 1150.07 1201.16 1150.69 1201.85 1151.05L1219.42 1160.17C1220.11 1160.53 1221.31 1160.49 1222.09 1160.09ZM1248.93 1146.14L1267.3 1136.61C1268.08 1136.2 1268.15 1135.58 1267.46 1135.22L1249.89 1126.09C1249.2 1125.73 1248 1125.77 1247.22 1126.18L1228.85 1135.71C1228.07 1136.12 1228 1136.74 1228.69 1137.1L1246.26 1146.23C1246.96 1146.59 1248.15 1146.55 1248.93 1146.14ZM1161.36 1144.69L1142.99 1154.23C1142.21 1154.64 1142.14 1155.26 1142.83 1155.62L1160.41 1164.75C1161.1 1165.11 1162.3 1165.07 1163.08 1164.66L1181.45 1155.12C1182.23 1154.72 1182.3 1154.1 1181.6 1153.74L1164.03 1144.61C1163.33 1144.25 1162.14 1144.29 1161.36 1144.69ZM1188.2 1130.75L1169.84 1140.29C1169.06 1140.7 1168.98 1141.31 1169.68 1141.67L1187.25 1150.8C1187.95 1151.16 1189.14 1151.13 1189.92 1150.72L1208.29 1141.18C1209.07 1140.77 1209.14 1140.15 1208.45 1139.79L1190.88 1130.66C1190.18 1130.31 1188.98 1130.34 1188.2 1130.75ZM1295.59 1074.97L1277.22 1084.51C1276.44 1084.92 1276.37 1085.54 1277.06 1085.9L1294.63 1095.03C1295.33 1095.39 1296.52 1095.35 1297.3 1094.94L1315.67 1085.4C1316.45 1085 1316.52 1084.38 1315.83 1084.02L1298.26 1074.89C1297.56 1074.53 1296.37 1074.57 1295.59 1074.97ZM1268.74 1088.92L1250.37 1098.46C1249.59 1098.86 1249.52 1099.48 1250.21 1099.84L1267.79 1108.97C1268.48 1109.33 1269.67 1109.3 1270.45 1108.89L1288.82 1099.35C1289.6 1098.94 1289.68 1098.32 1288.98 1097.96L1271.41 1088.84C1270.71 1088.48 1269.52 1088.51 1268.74 1088.92ZM1322.43 1061.03L1304.06 1070.57C1303.28 1070.98 1303.22 1071.6 1303.91 1071.96L1321.48 1081.09C1322.17 1081.45 1323.37 1081.41 1324.15 1081L1342.51 1071.46C1343.3 1071.06 1343.36 1070.44 1342.67 1070.08L1325.1 1060.95C1324.41 1060.59 1323.21 1060.63 1322.43 1061.03ZM1215.05 1116.8L1196.68 1126.35C1195.9 1126.75 1195.83 1127.37 1196.53 1127.73L1214.1 1136.86C1214.79 1137.22 1215.99 1137.18 1216.77 1136.78L1235.14 1127.24C1235.92 1126.83 1235.99 1126.22 1235.3 1125.86L1217.72 1116.73C1217.03 1116.36 1215.83 1116.4 1215.05 1116.8ZM1241.9 1102.86L1223.53 1112.4C1222.75 1112.81 1222.67 1113.43 1223.37 1113.79L1240.94 1122.92C1241.63 1123.28 1242.83 1123.24 1243.61 1122.84L1261.98 1113.29C1262.76 1112.89 1262.83 1112.27 1262.14 1111.91L1244.56 1102.78C1243.87 1102.42 1242.68 1102.46 1241.9 1102.86ZM1207.63 1193.68L1225.99 1184.14C1226.78 1183.73 1226.84 1183.11 1226.15 1182.75L1208.58 1173.62C1207.89 1173.26 1206.69 1173.3 1205.91 1173.7L1187.54 1183.24C1186.76 1183.65 1186.69 1184.27 1187.38 1184.63L1204.95 1193.76C1205.65 1194.12 1206.85 1194.08 1207.63 1193.68ZM1066.07 1187.67L1048.5 1178.54C1047.8 1178.18 1046.61 1178.21 1045.83 1178.62L1027.46 1188.16C1026.68 1188.56 1026.61 1189.19 1027.3 1189.55L1044.87 1198.67C1045.57 1199.03 1046.76 1199 1047.54 1198.59L1065.91 1189.05C1066.69 1188.64 1066.76 1188.03 1066.07 1187.67ZM1101.06 1195.57L1083.49 1186.44C1082.8 1186.08 1081.61 1186.12 1080.82 1186.52L1052.56 1201.2C1051.78 1201.6 1051.71 1202.22 1052.41 1202.58L1069.98 1211.71C1070.67 1212.07 1071.86 1212.04 1072.65 1211.63L1100.91 1196.96C1101.69 1196.55 1101.76 1195.93 1101.06 1195.57ZM1039.84 1169.64L1022.27 1160.51C1021.57 1160.15 1020.38 1160.19 1019.6 1160.59L996.991 1172.33C996.211 1172.74 996.138 1173.36 996.834 1173.72L1014.4 1182.85C1015.1 1183.21 1016.29 1183.17 1017.07 1182.76L1039.68 1171.02C1040.46 1170.62 1040.53 1170 1039.84 1169.64ZM1057.17 1160.64C1057.87 1161 1059.06 1160.96 1059.84 1160.56L1078.21 1151.02C1078.99 1150.61 1079.06 1149.99 1078.36 1149.63L1060.79 1140.5C1060.1 1140.14 1058.9 1140.18 1058.12 1140.58L1039.76 1150.12C1038.98 1150.53 1038.9 1151.15 1039.6 1151.51L1057.17 1160.64ZM1133.23 1204.93L1115.66 1195.81C1114.96 1195.45 1113.77 1195.48 1112.99 1195.89L1077.66 1214.24C1076.88 1214.64 1076.82 1215.26 1077.51 1215.62L1095.08 1224.75C1095.77 1225.11 1096.97 1225.07 1097.75 1224.67L1133.07 1206.32C1133.85 1205.92 1133.93 1205.3 1133.23 1204.93ZM1145.62 1224.58L1128.05 1215.45C1127.35 1215.09 1126.16 1215.13 1125.38 1215.53L1102.77 1227.27C1101.99 1227.68 1101.92 1228.3 1102.62 1228.66L1120.19 1237.79C1120.88 1238.15 1122.08 1238.11 1122.86 1237.7L1145.46 1225.96C1146.24 1225.56 1146.31 1224.94 1145.62 1224.58ZM1256.77 1056.97C1257.46 1057.33 1258.66 1057.29 1259.43 1056.89L1277.8 1047.35C1278.58 1046.94 1278.66 1046.32 1277.96 1045.96L1260.39 1036.83C1259.69 1036.47 1258.5 1036.51 1257.72 1036.92L1239.36 1046.46C1238.58 1046.86 1238.5 1047.48 1239.2 1047.84L1256.77 1056.97ZM1203.08 1084.86C1203.77 1085.22 1204.97 1085.18 1205.75 1084.77L1224.11 1075.23C1224.89 1074.83 1224.96 1074.2 1224.27 1073.84L1206.7 1064.72C1206.01 1064.36 1204.81 1064.39 1204.03 1064.8L1185.66 1074.33C1184.88 1074.74 1184.81 1075.36 1185.5 1075.72L1203.08 1084.86ZM1084.01 1146.69C1084.71 1147.05 1085.9 1147.02 1086.68 1146.61L1105.05 1137.08C1105.83 1136.67 1105.9 1136.05 1105.21 1135.69L1087.64 1126.56C1086.95 1126.2 1085.75 1126.24 1084.97 1126.65L1066.6 1136.18C1065.82 1136.59 1065.75 1137.21 1066.44 1137.57L1084.01 1146.69ZM1229.93 1070.91C1230.62 1071.27 1231.81 1071.23 1232.59 1070.83L1250.96 1061.29C1251.74 1060.89 1251.81 1060.27 1251.12 1059.91L1233.55 1050.78C1232.85 1050.42 1231.66 1050.45 1230.88 1050.86L1212.51 1060.4C1211.73 1060.8 1211.66 1061.43 1212.35 1061.79L1229.93 1070.91ZM1176.23 1098.8C1176.93 1099.16 1178.12 1099.12 1178.9 1098.72L1197.27 1089.18C1198.05 1088.77 1198.12 1088.15 1197.43 1087.79L1179.86 1078.66C1179.16 1078.3 1177.97 1078.34 1177.19 1078.75L1158.82 1088.29C1158.04 1088.69 1157.97 1089.31 1158.66 1089.67L1176.23 1098.8ZM1158.8 1225.56C1158.11 1225.19 1156.92 1225.23 1156.13 1225.64L1127.88 1240.31C1127.09 1240.71 1127.03 1241.34 1127.72 1241.7L1145.29 1250.82C1145.98 1251.18 1147.18 1251.14 1147.96 1250.74L1176.22 1236.06C1177 1235.66 1177.07 1235.04 1176.37 1234.68L1158.8 1225.56ZM1137.71 1118.81C1138.4 1119.17 1139.59 1119.13 1140.38 1118.73L1158.74 1109.19C1159.52 1108.78 1159.59 1108.16 1158.9 1107.8L1141.33 1098.67C1140.63 1098.31 1139.44 1098.35 1138.66 1098.76L1120.29 1108.3C1119.51 1108.7 1119.44 1109.32 1120.14 1109.68L1137.71 1118.81ZM1110.86 1132.75C1111.56 1133.11 1112.75 1133.07 1113.53 1132.67L1131.9 1123.13C1132.68 1122.72 1132.75 1122.1 1132.06 1121.74L1114.49 1112.61C1113.79 1112.25 1112.6 1112.29 1111.82 1112.69L1093.45 1122.23C1092.67 1122.64 1092.6 1123.26 1093.29 1123.62L1110.86 1132.75ZM1656.15 967.239C1655.45 966.879 1654.26 966.915 1653.48 967.319L1608.27 990.802C1607.49 991.206 1607.41 991.828 1608.11 992.188L1625.68 1001.31C1626.38 1001.67 1627.57 1001.64 1628.35 1001.23L1673.56 977.745C1674.34 977.342 1674.41 976.72 1673.72 976.359L1656.15 967.239ZM1596.81 998.06C1596.11 997.7 1594.92 997.736 1594.14 998.144L1575.77 1007.68C1574.99 1008.09 1574.92 1008.71 1575.61 1009.07L1593.18 1018.2C1593.88 1018.55 1595.07 1018.52 1595.85 1018.11L1614.22 1008.57C1615 1008.17 1615.07 1007.55 1614.38 1007.19L1596.81 998.06ZM1234.48 1179.73L1252.84 1170.19C1253.62 1169.78 1253.69 1169.17 1253 1168.81L1235.43 1159.68C1234.74 1159.32 1233.54 1159.35 1232.76 1159.76L1214.39 1169.3C1213.61 1169.7 1213.54 1170.33 1214.23 1170.69L1231.81 1179.81C1232.5 1180.17 1233.69 1180.14 1234.48 1179.73ZM1543.12 1025.95C1542.43 1025.59 1541.23 1025.62 1540.45 1026.03L1522.08 1035.57C1521.3 1035.98 1521.23 1036.59 1521.92 1036.95L1539.49 1046.08C1540.19 1046.44 1541.38 1046.41 1542.16 1046L1560.53 1036.46C1561.31 1036.06 1561.38 1035.43 1560.69 1035.07L1543.12 1025.95ZM1683 953.294C1682.3 952.934 1681.11 952.971 1680.33 953.375L1661.96 962.917C1661.18 963.321 1661.11 963.943 1661.8 964.303L1679.37 973.431C1680.06 973.791 1681.26 973.755 1682.04 973.351L1700.41 963.812C1701.19 963.404 1701.26 962.786 1700.57 962.426L1683 953.294ZM1727.41 948.481L1684.74 926.315C1684.04 925.955 1682.85 925.991 1682.07 926.395L1663.7 935.938C1662.92 936.341 1662.85 936.963 1663.54 937.324L1706.22 959.49C1706.92 959.85 1708.11 959.814 1708.89 959.41L1727.26 949.867C1728.04 949.46 1728.11 948.838 1727.41 948.481ZM1442.8 1078.05C1442.11 1077.69 1440.91 1077.73 1440.13 1078.13L1417.52 1089.87C1416.74 1090.28 1416.67 1090.9 1417.37 1091.26L1434.94 1100.39C1435.63 1100.75 1436.82 1100.71 1437.61 1100.3L1460.21 1088.56C1460.99 1088.16 1461.06 1087.54 1460.37 1087.18L1442.8 1078.05ZM1510.62 1042.83C1509.92 1042.47 1508.73 1042.5 1507.95 1042.91L1479.69 1057.59C1478.91 1057.99 1478.84 1058.61 1479.53 1058.97L1497.1 1068.1C1497.8 1068.46 1498.99 1068.42 1499.77 1068.02L1528.03 1053.34C1528.81 1052.94 1528.88 1052.32 1528.19 1051.96L1510.62 1042.83ZM1380.63 1110.34C1379.94 1109.98 1378.74 1110.02 1377.96 1110.42L1226.78 1188.95C1226 1189.35 1225.93 1189.97 1226.62 1190.33L1244.19 1199.46C1244.88 1199.82 1246.08 1199.78 1246.86 1199.38L1398.04 1120.86C1398.82 1120.45 1398.9 1119.83 1398.2 1119.47L1380.63 1110.34ZM1220.97 1193.26C1220.28 1192.9 1219.08 1192.94 1218.3 1193.34L1195.7 1205.09C1194.92 1205.49 1194.85 1206.11 1195.54 1206.47L1213.11 1215.6C1213.81 1215.96 1215 1215.93 1215.78 1215.52L1238.39 1203.77C1239.17 1203.37 1239.23 1202.75 1238.54 1202.39L1220.97 1193.26ZM1411.72 1094.19C1411.02 1093.83 1409.83 1093.87 1409.05 1094.27L1386.44 1106.01C1385.66 1106.42 1385.59 1107.04 1386.28 1107.4L1403.85 1116.52C1404.55 1116.89 1405.74 1116.85 1406.52 1116.44L1429.13 1104.7C1429.91 1104.3 1429.98 1103.68 1429.29 1103.32L1411.72 1094.19ZM1189.89 1209.41C1189.19 1209.05 1188 1209.09 1187.22 1209.49L1164.61 1221.23C1163.83 1221.64 1163.76 1222.26 1164.45 1222.62L1182.02 1231.75C1182.72 1232.11 1183.91 1232.07 1184.69 1231.67L1207.3 1219.92C1208.08 1219.52 1208.15 1218.9 1207.46 1218.54L1189.89 1209.41ZM1473.88 1061.91C1473.19 1061.55 1472 1061.58 1471.21 1061.99L1448.61 1073.73C1447.83 1074.13 1447.76 1074.76 1448.45 1075.12L1466.03 1084.24C1466.72 1084.6 1467.92 1084.57 1468.69 1084.16L1491.3 1072.42C1492.08 1072.02 1492.15 1071.39 1491.46 1071.03L1473.88 1061.91ZM1569.96 1012C1569.27 1011.64 1568.07 1011.68 1567.29 1012.09L1548.92 1021.63C1548.14 1022.03 1548.08 1022.65 1548.77 1023.01L1566.34 1032.14C1567.03 1032.5 1568.23 1032.46 1569.01 1032.06L1587.37 1022.52C1588.16 1022.11 1588.22 1021.49 1587.53 1021.13L1569.96 1012ZM1630.09 974.253L1648.46 964.714C1649.24 964.31 1649.31 963.688 1648.62 963.328L1631.05 954.204C1630.35 953.844 1629.16 953.88 1628.38 954.284L1610.01 963.823C1609.23 964.227 1609.16 964.849 1609.85 965.209L1627.43 974.333C1628.12 974.693 1629.32 974.657 1630.09 974.253ZM1520.54 978.997L1538.91 969.458C1539.69 969.054 1539.76 968.432 1539.07 968.072L1521.49 958.944C1520.8 958.584 1519.61 958.62 1518.82 959.024L1500.46 968.563C1499.68 968.971 1499.61 969.589 1500.3 969.949L1517.87 979.077C1518.57 979.441 1519.76 979.404 1520.54 978.997ZM1449.24 1068.19L1502.93 1040.3C1503.71 1039.9 1503.78 1039.27 1503.09 1038.91L1485.52 1029.79C1484.83 1029.43 1483.63 1029.46 1482.85 1029.87L1429.16 1057.76C1428.38 1058.16 1428.3 1058.78 1429 1059.14L1446.57 1068.27C1447.27 1068.63 1448.46 1068.59 1449.24 1068.19ZM1600.58 988.277C1601.27 988.638 1602.47 988.601 1603.25 988.197L1621.62 978.659C1622.4 978.251 1622.47 977.633 1621.77 977.273L1604.2 968.145C1603.51 967.785 1602.31 967.821 1601.54 968.228L1583.17 977.771C1582.39 978.175 1582.32 978.797 1583.01 979.157L1600.58 988.277ZM1578.14 975.159L1596.51 965.616C1597.29 965.213 1597.36 964.59 1596.67 964.234L1579.1 955.106C1578.41 954.746 1577.21 954.782 1576.43 955.186L1558.06 964.725C1557.28 965.133 1557.21 965.751 1557.9 966.111L1575.48 975.239C1576.17 975.599 1577.37 975.563 1578.14 975.159ZM1422.39 1082.13L1440.76 1072.59C1441.54 1072.18 1441.61 1071.56 1440.92 1071.2L1423.35 1062.07C1422.65 1061.71 1421.46 1061.75 1420.68 1062.15L1402.31 1071.7C1401.53 1072.1 1401.46 1072.72 1402.15 1073.08L1419.72 1082.21C1420.42 1082.57 1421.61 1082.53 1422.39 1082.13ZM1541.24 1019.1C1541.93 1019.46 1543.13 1019.43 1543.91 1019.02L1562.27 1009.48C1563.05 1009.07 1563.12 1008.45 1562.43 1008.09L1544.86 998.962C1544.16 998.602 1542.97 998.638 1542.19 999.042L1523.82 1008.58C1523.04 1008.99 1522.97 1009.61 1523.67 1009.97L1541.24 1019.1ZM1288.17 1151.85L1306.54 1142.3C1307.32 1141.9 1307.38 1141.28 1306.69 1140.92L1289.12 1131.79C1288.43 1131.43 1287.23 1131.47 1286.45 1131.87L1268.08 1141.41C1267.3 1141.82 1267.24 1142.44 1267.93 1142.8L1285.5 1151.93C1286.19 1152.29 1287.39 1152.25 1288.17 1151.85ZM1315.01 1137.9L1333.38 1128.36C1334.16 1127.95 1334.23 1127.34 1333.54 1126.98L1315.97 1117.85C1315.27 1117.49 1314.08 1117.52 1313.3 1117.93L1294.93 1127.47C1294.15 1127.87 1294.08 1128.5 1294.77 1128.86L1312.34 1137.98C1313.04 1138.34 1314.23 1138.31 1315.01 1137.9ZM1261.32 1165.79L1279.69 1156.25C1280.47 1155.84 1280.54 1155.22 1279.84 1154.86L1262.27 1145.74C1261.58 1145.38 1260.39 1145.41 1259.6 1145.82L1241.24 1155.36C1240.46 1155.76 1240.39 1156.38 1241.08 1156.74L1258.65 1165.87C1259.35 1166.23 1260.54 1166.19 1261.32 1165.79ZM1368.7 1110.02L1387.07 1100.48C1387.85 1100.07 1387.92 1099.45 1387.23 1099.09L1369.66 1089.96C1368.97 1089.6 1367.77 1089.64 1366.99 1090.04L1348.62 1099.58C1347.84 1099.99 1347.77 1100.61 1348.46 1100.97L1366.03 1110.1C1366.73 1110.46 1367.92 1110.42 1368.7 1110.02ZM1341.86 1123.96L1360.22 1114.42C1361 1114.01 1361.08 1113.39 1360.38 1113.03L1342.81 1103.9C1342.12 1103.54 1340.92 1103.58 1340.14 1103.99L1321.77 1113.53C1320.99 1113.93 1320.92 1114.55 1321.62 1114.91L1339.19 1124.04C1339.88 1124.4 1341.08 1124.36 1341.86 1123.96ZM1395.55 1096.07L1413.92 1086.53C1414.7 1086.13 1414.76 1085.51 1414.07 1085.15L1396.5 1076.02C1395.81 1075.66 1394.61 1075.69 1393.83 1076.1L1375.46 1085.64C1374.68 1086.05 1374.61 1086.67 1375.3 1087.03L1392.87 1096.16C1393.57 1096.52 1394.77 1096.48 1395.55 1096.07ZM1542.05 902.104C1542.74 902.464 1543.93 902.428 1544.71 902.024L1563.08 892.482C1563.86 892.078 1563.93 891.456 1563.24 891.096L1558.57 888.665C1557.87 888.305 1556.68 888.342 1555.9 888.749L1537.53 898.292C1536.75 898.695 1536.68 899.317 1537.37 899.678L1542.05 902.104ZM1408.61 978.102C1409.31 978.462 1410.5 978.426 1411.28 978.022L1429.65 968.483C1430.43 968.079 1430.5 967.457 1429.81 967.097L1412.24 957.973C1411.55 957.609 1410.35 957.649 1409.57 958.053L1391.2 967.595C1390.42 967.999 1390.35 968.621 1391.04 968.981L1408.61 978.102ZM1462.31 950.217C1463 950.577 1464.19 950.54 1464.97 950.133L1483.34 940.594C1484.12 940.187 1484.19 939.568 1483.5 939.208L1465.92 930.08C1465.23 929.72 1464.03 929.757 1463.25 930.164L1444.88 939.706C1444.11 940.11 1444.04 940.732 1444.73 941.093L1462.31 950.217ZM1375.83 995.128C1376.53 995.488 1377.72 995.452 1378.5 995.044L1396.87 985.505C1397.65 985.102 1397.72 984.479 1397.03 984.119L1379.46 974.991C1378.76 974.635 1377.57 974.668 1376.79 975.075L1358.42 984.614C1357.64 985.018 1357.57 985.64 1358.26 986L1375.83 995.128ZM1435.46 964.161C1436.15 964.521 1437.35 964.485 1438.13 964.081L1456.49 954.539C1457.27 954.135 1457.34 953.513 1456.65 953.153L1439.08 944.025C1438.39 943.665 1437.19 943.701 1436.42 944.105L1418.05 953.644C1417.27 954.051 1417.2 954.67 1417.89 955.03L1435.46 964.161ZM1322.14 1023.02C1322.84 1023.38 1324.03 1023.34 1324.81 1022.93L1343.18 1013.39C1343.96 1012.99 1344.03 1012.37 1343.34 1012.01L1325.76 1002.88C1325.07 1002.52 1323.87 1002.56 1323.09 1002.96L1304.72 1012.5C1303.94 1012.91 1303.87 1013.53 1304.57 1013.89L1322.14 1023.02ZM1348.99 1009.07C1349.68 1009.43 1350.87 1009.4 1351.65 1008.99L1370.02 999.45C1370.8 999.046 1370.87 998.424 1370.18 998.064L1352.6 988.936C1351.91 988.576 1350.72 988.612 1349.94 989.016L1331.57 998.555C1330.79 998.959 1330.72 999.581 1331.41 999.941L1348.99 1009.07ZM1488.35 929.989C1489.05 930.35 1490.24 930.313 1491.02 929.906L1509.39 920.363C1510.17 919.959 1510.24 919.341 1509.55 918.977L1504.87 916.547C1504.18 916.187 1502.98 916.223 1502.2 916.627L1483.84 926.169C1483.06 926.573 1482.98 927.195 1483.68 927.556L1488.35 929.989ZM1568.89 888.16C1569.59 888.52 1570.78 888.483 1571.56 888.076L1589.93 878.537C1590.71 878.13 1590.78 877.511 1590.08 877.151L1585.41 874.721C1584.71 874.364 1583.52 874.397 1582.74 874.805L1564.37 884.343C1563.59 884.747 1563.52 885.369 1564.21 885.73L1568.89 888.16ZM1605.8 907.332C1606.5 907.692 1607.69 907.656 1608.47 907.252L1626.84 897.713C1627.62 897.309 1627.69 896.687 1627 896.327L1609.42 887.199C1608.73 886.839 1607.53 886.875 1606.75 887.279L1588.39 896.822C1587.61 897.226 1587.53 897.848 1588.23 898.208L1605.8 907.332ZM1656.94 960.312L1675.31 950.77C1676.09 950.366 1676.16 949.744 1675.47 949.384L1657.89 940.256C1657.2 939.896 1656.01 939.932 1655.23 940.336L1636.86 949.875C1636.08 950.282 1636.01 950.901 1636.7 951.261L1654.27 960.389C1654.96 960.752 1656.16 960.716 1656.94 960.312ZM1515.2 916.045C1515.89 916.405 1517.09 916.369 1517.87 915.965L1536.23 906.426C1537.01 906.022 1537.08 905.4 1536.39 905.04L1531.71 902.613C1531.02 902.253 1529.82 902.29 1529.04 902.693L1510.68 912.232C1509.9 912.64 1509.83 913.258 1510.52 913.618L1515.2 916.045ZM1295.3 1036.96C1295.99 1037.32 1297.19 1037.28 1297.97 1036.88L1316.33 1027.34C1317.11 1026.93 1317.19 1026.31 1316.49 1025.95L1298.92 1016.82C1298.22 1016.46 1297.03 1016.5 1296.25 1016.9L1277.88 1026.45C1277.1 1026.85 1277.03 1027.47 1277.72 1027.83L1295.3 1036.96Z" fill="#455A64"/>
<path d="M1372.19 1174.39L1376.18 1176.46L1482.26 1231.55L1670.92 1133.56L1674.84 1131.55L1564.77 1074.39L1372.19 1174.39Z" fill="#263238"/>
<path d="M1668.49 1134.82L1564.77 1080.99L1378.6 1177.72L1482.26 1231.55L1668.49 1134.82Z" fill="#37474F"/>
<path d="M1129.15 187.653C1095.99 168.11 1053.24 171.606 1030.13 187.336C997.615 209.474 986.377 233.797 980.549 282.077C972.368 349.893 963.953 369.32 955.012 384.8C945.298 401.611 930.582 409.455 917.633 413.398C925.935 418.146 942.544 422.944 960.479 414.995C952.868 447.701 942.273 475.201 951.691 509.776C958.036 533.07 971.572 559.453 991.501 576.151C1008.48 590.372 1032.78 594.716 1053.21 602.756C1039.43 576.148 1032.02 551.035 1041.55 521.127C1052.05 488.137 1076.63 460.048 1087.55 426.797C1102.64 380.802 1119.95 333.166 1124.22 285.181C1127.83 244.588 1129.5 215.418 1129.15 187.653Z" fill="#263238"/>
<path d="M1112.59 193.717C1107.31 189.253 1083.88 192.131 1069.75 207.301C1055.62 222.472 1047.17 244.544 1064.35 256.363C1080.47 267.456 1143.03 208.422 1112.59 193.717Z" fill="#BA68C8"/>
<path d="M1304.67 260.296C1316.33 256.421 1321.27 242.939 1317.79 232.207C1314.31 221.471 1304.57 213.304 1294.17 207.177C1270.7 193.346 1241.7 187.409 1213.87 190.374C1189.13 183.152 1161.01 181.526 1133.18 186.772C1104.1 192.254 1071.24 217.047 1068.54 254.679C1026.98 263.497 1008.83 309.369 1034.49 358.355C1053.11 393.898 1095.28 418.454 1100.36 436.12L1257.82 326.031C1263.96 334.646 1282.97 335.042 1290.76 331.623C1298.55 328.203 1303.37 315.557 1298.19 309.307C1312.3 310.562 1326.46 300.332 1328.14 287.661C1329.81 274.986 1318.72 262.053 1304.67 260.296Z" fill="#263238"/>
<path d="M1133.18 186.773C1115.95 190.706 1100.62 199.892 1089.38 211.916C1083.74 217.929 1079.18 224.732 1075.98 232.005C1072.74 239.273 1070.98 247.004 1070.38 254.789L1070.29 256.012L1068.97 256.296C1059.25 258.384 1050.2 262.848 1043.22 269.243C1036.18 275.602 1031.2 283.668 1028.26 292.268C1022.51 309.618 1024.34 328.605 1030.96 345.794C1037.26 363.256 1049.01 378.612 1062.52 392.495C1069.25 399.476 1076.37 406.174 1083.23 413.119C1086.64 416.615 1090.09 420.078 1093.15 423.851C1096.16 427.598 1099.13 431.571 1100.37 436.122C1098.85 431.64 1095.61 427.933 1092.48 424.32C1089.28 420.711 1085.67 417.401 1082.12 414.057C1074.9 407.455 1067.54 400.946 1060.58 394.052C1053.6 387.18 1046.93 379.991 1041.14 372.173C1035.22 364.413 1030.87 355.748 1027.33 346.925C1023.68 338.103 1021.65 328.739 1020.89 319.32C1020.22 309.905 1020.97 300.254 1024.23 291.144C1027.42 282.06 1032.82 273.482 1040.43 266.722C1047.99 259.919 1057.77 255.204 1068.13 253.072L1066.72 254.575C1068.06 238.28 1075.6 222.568 1087.61 210.526C1093.56 204.458 1100.65 199.357 1108.34 195.286C1116.04 191.226 1124.45 188.218 1133.18 186.773Z" fill="black"/>
<path d="M1710.25 493.249C1718.92 486.65 1720.49 484.951 1732.16 476.533C1740.8 470.294 1747.71 465.262 1749.94 461.617C1754.33 454.439 1750.24 447.327 1746.59 448.484C1739.28 450.808 1730.62 456.389 1713.74 466.823C1695.2 478.279 1682.1 489.579 1681.1 487.771C1681.1 487.771 1685.14 482.03 1700.9 466.681C1723.6 444.584 1728.05 440.575 1732.25 433.51C1741.04 418.718 1728.69 416.291 1723.24 419.34C1717.07 422.796 1710.35 429.501 1694.11 444.005C1676.45 459.776 1661.08 475.812 1659.7 474.859C1658.32 473.902 1682.69 449.884 1697.31 432.273C1710.9 415.916 1702.05 409.008 1698.19 408.469C1694.08 407.891 1689.33 412.66 1682.77 418.998C1670.94 430.432 1636.48 468.296 1629.28 475.918C1622.07 483.54 1616.61 485.817 1615.68 474.055C1614.81 463.021 1615.39 451.292 1610.05 443.7C1601.12 431 1591.26 434.106 1591.23 442.605C1591.19 454.596 1588.01 468.078 1585.66 487.243C1584.43 497.237 1584.62 509.177 1584.39 516.132C1583.01 540.463 1560.31 553.036 1541.43 564.751C1522.52 576.487 1471.12 602.844 1471.12 602.844C1471.12 602.844 1375.18 513.99 1347.2 492.202C1313.94 466.317 1304.46 464.484 1257.51 464.84L1323.92 618.455C1323.92 618.455 1414.16 693.579 1444.82 709.627C1475.48 725.674 1487.91 716.844 1525.17 687.169C1553.78 664.381 1600.84 612.088 1612.22 600.468C1623.59 588.845 1628.49 581.376 1641.67 577.029C1659.58 571.117 1668.81 563.023 1680.73 550.73C1686.43 544.854 1695.86 533.086 1704.58 525.144C1718.77 512.225 1736.69 500.791 1741.71 497.004C1749.57 491.088 1750.8 478.919 1739.77 482.754C1718.92 490.001 1698 505.91 1697.33 504.851C1696.67 503.781 1704.3 497.782 1710.25 493.249Z" fill="#FFBDA7"/>
<path d="M1622.95 494.01C1632.54 506.681 1634.69 536.691 1625.37 554.572C1644.65 537.578 1642.6 507.037 1622.95 494.01Z" fill="#F0997A"/>
<path d="M1471.13 602.841C1455.23 612.212 1436.25 639.206 1441.66 667.019C1434.77 646.519 1428.76 620.885 1463.64 595.357L1471.13 602.841Z" fill="#F0997A"/>
<path d="M1012.7 509.765L1049.67 496.432C1049.67 496.432 1104.88 483.55 1150.92 474.673C1199.22 469.194 1241.12 465.091 1241.12 465.091L1257.51 464.836C1257.51 464.836 1293.88 493.616 1320.55 520.228C1347.22 546.84 1370.63 569.046 1372.1 602.607C1374.09 647.987 1341.7 664.529 1341.7 664.529L1343.7 722.334L1385.78 829.491L978.977 1040.72C991.351 910.291 1023.56 888.783 1041.59 798.371C1038.12 751.07 1011.96 686.179 1007.5 653.248C992.051 539.24 1012.7 509.765 1012.7 509.765Z" fill="#BA68C8"/>
<path d="M1098.88 452.929C1100.4 436.965 1102.84 405.18 1102.84 405.18C1098.41 410.484 1074.58 417.782 1058.24 397.1C1039.43 373.278 1042.41 356.22 1055.53 344.815C1070.52 331.787 1096.74 335.119 1107.63 355.787C1114.48 370.375 1127.97 353.186 1114.4 330.274C1109.92 290.041 1166.99 316.726 1202.5 232.841C1238.37 231.007 1260.01 240.179 1277.46 266.961C1285.37 279.109 1294.96 296.586 1293 347.263C1290.51 411.819 1279.71 432.108 1254.61 442.917C1243.04 447.901 1231.14 449.804 1208.86 448.29L1208.64 454.486C1208.69 455.774 1208.61 457.309 1208.89 458.782C1209.39 461.373 1211 465.382 1216.49 465.662C1228 466.251 1241.12 465.047 1241.12 465.047C1241.12 465.047 1259.65 506.327 1198.92 518.1C1113.62 534.635 1049.67 496.436 1049.67 496.436C1049.67 496.436 1063.54 490.175 1075.69 482.269C1094.4 470.104 1097.92 462.941 1098.88 452.929Z" fill="#FFBDA7"/>
<path d="M1075.59 394.051C1075.75 398.399 1079.8 401.811 1084.63 401.673C1089.46 401.535 1093.25 397.893 1093.1 393.546C1092.94 389.198 1088.9 385.786 1084.07 385.924C1079.23 386.062 1075.44 389.7 1075.59 394.051Z" fill="#FAFAFA"/>
<path d="M1190.16 385.441L1229.18 396.344C1226.03 406.382 1214.75 412.082 1203.97 409.074C1193.2 406.065 1187.02 395.486 1190.16 385.441Z" fill="#B16668"/>
<path d="M1192.71 393.519C1203.6 393.202 1212.93 399.921 1215.31 409.122C1211.73 410.071 1207.82 410.148 1203.98 409.075C1196.25 406.914 1190.95 400.842 1189.7 393.879C1190.69 393.73 1191.67 393.548 1192.71 393.519Z" fill="#F28F8F"/>
<path d="M1278.08 297.768L1253.56 292.482C1254.94 286.29 1261.55 282.452 1268.32 283.911C1275.08 285.37 1279.46 291.576 1278.08 297.768Z" fill="#263238"/>
<path d="M1158.45 296.648L1182.33 288.506C1180.06 282.442 1172.87 279.353 1166.28 281.601C1159.69 283.853 1156.18 290.591 1158.45 296.648Z" fill="#263238"/>
<path d="M1254.01 326.374C1253.61 331.529 1257.98 336.109 1263.78 336.615C1269.57 337.117 1274.58 333.341 1274.97 328.186C1275.37 323.027 1271 318.447 1265.21 317.949C1259.42 317.45 1254.4 321.219 1254.01 326.374Z" fill="#263238"/>
<path d="M1168.45 326.876C1168.06 332.031 1172.43 336.615 1178.22 337.117C1184.01 337.619 1189.02 333.843 1189.42 328.688C1189.82 323.529 1185.44 318.949 1179.66 318.45C1173.87 317.952 1168.85 321.725 1168.45 326.876Z" fill="#263238"/>
<path d="M1208.85 448.286C1187.03 446.452 1159.73 440.006 1142.02 431.424C1127.28 424.279 1120.09 412.855 1115.95 405.438C1115.95 405.438 1115.39 424.359 1133.93 438.325C1154.26 453.626 1208.89 458.778 1208.89 458.778C1208.63 457.49 1208.64 456.166 1208.64 454.485L1208.85 448.286Z" fill="#F0997A"/>
<path d="M1179.92 672.279C1199.66 657.211 1209.72 651.248 1219.2 648.24C1228.68 645.235 1261.68 630.632 1274.46 626.983C1282.57 624.669 1286.73 636.267 1276.81 644.969C1269.17 651.67 1248.74 661.045 1239.85 666.109C1230.95 671.173 1214.24 691.968 1214.24 691.968L1179.92 672.279Z" fill="#F0997A"/>
<path d="M1135.18 804.8C1070.65 837.83 1013.81 878.986 951.138 887.437C889.968 895.685 888.068 850.13 889.163 816.176C890.547 773.324 917.257 638.947 931.108 594.174C945.816 546.633 955.433 529.12 1012.7 509.766C1059.99 537.665 1049.29 629.827 1039.01 664.999C1028.29 701.688 1010.95 770.257 1010.95 770.257C1010.95 770.257 1085.51 749.135 1103.43 740.615C1121.35 732.095 1151.35 695.868 1163.2 684.262C1179.32 668.473 1187.97 669.976 1196.78 670.66C1225.61 672.897 1232.03 674.702 1238.31 677.816C1244.6 680.926 1244.57 687.504 1244.57 687.504C1252.21 687.926 1263.55 687.071 1265.8 698.196C1267.28 705.541 1266.88 707.149 1266.88 707.149C1266.88 707.149 1269.62 707.24 1271.98 709.412C1278.76 715.633 1269.53 739.011 1263.04 744.955C1258.49 749.128 1251.64 750.005 1242.53 749.412C1234.78 748.91 1237.86 741.674 1237.86 741.674L1227.15 742.86C1204.96 759.016 1203.89 782.874 1173.64 791.096C1167.25 792.827 1150.68 795.996 1135.18 804.8Z" fill="#FFBDA7"/>
<path d="M1244.57 687.5L1210.22 683.266L1243.56 683.317C1244.19 684.721 1244.53 686.114 1244.57 687.5Z" fill="#F0997A"/>
<path d="M1266.88 707.145L1227.52 704.802L1266.64 703.066C1266.9 704.329 1266.95 705.7 1266.88 707.145Z" fill="#F0997A"/>
<path d="M1262.82 722.908C1261.76 724.782 1259.89 726.259 1257.85 727.307C1255.82 728.416 1253.63 729.162 1251.32 729.733L1251.82 729.369C1250.91 731.265 1249.92 733.131 1248.92 734.986L1248.05 734.095C1250.29 733.6 1252.55 734.033 1254.35 735.11C1256.16 736.183 1257.32 737.828 1258.08 739.505C1256.96 737.977 1255.48 736.725 1253.83 735.903C1252.16 735.165 1250.15 734.925 1248.48 735.332L1247 735.696L1247.61 734.441C1248.54 732.549 1249.48 730.668 1250.5 728.816L1250.66 728.525L1251 728.453C1253.16 727.99 1255.31 727.285 1257.37 726.466C1259.37 725.586 1261.39 724.567 1262.82 722.908Z" fill="#F0997A"/>
<path d="M1252.77 728.014C1248.93 728.96 1238.7 729.709 1238.7 729.709C1238.7 729.709 1238.58 732.234 1234.32 736.738C1232.05 739.146 1227.16 742.857 1227.16 742.857L1237.86 741.671C1237.86 741.671 1240.18 737.203 1249.74 734.988L1252.77 728.014Z" fill="#F0997A"/>
<path d="M1014.19 757.568L1010.95 770.258C983.411 778.327 954.403 797.612 948.648 811.764C952.341 789.634 965.734 772.189 1014.19 757.568Z" fill="#F0997A"/>
<path d="M1303.06 302.435C1301.74 302.275 1300.36 302.126 1298.92 301.995C1285.39 300.711 1267.36 300.427 1256.45 303.672C1242.4 307.878 1237.52 312.538 1229.33 312.716C1220.45 312.829 1214.57 308.231 1197.98 304.218C1184.49 300.984 1161.56 301.58 1143.38 303.283C1141.39 303.472 1139.46 303.672 1137.61 303.883C1134.41 304.251 1130.84 307.881 1130.98 312.105C1131.12 316.354 1134.84 319.683 1136.4 321.6C1137.09 322.448 1137.75 323.674 1138.25 325.446C1140.13 332.14 1141.19 345.2 1145.01 352.403C1146.55 355.303 1148.79 358.857 1152.45 362.008C1153.65 363.026 1154.88 363.921 1156.26 364.754C1156.98 365.173 1157.7 365.569 1158.46 365.955C1160.39 366.912 1162.54 367.723 1164.98 368.359C1165.35 368.454 1165.71 368.545 1166.07 368.618C1166.63 368.738 1167.21 368.869 1167.8 368.974C1168.38 369.08 1168.98 369.171 1169.6 369.262C1171.36 369.513 1173.26 369.684 1175.27 369.72C1176.05 369.756 1176.86 369.756 1177.68 369.756C1178.65 369.731 1179.66 369.706 1180.69 369.64C1203.45 368.298 1212.35 357.922 1217.34 347.703C1222.23 337.742 1220.27 324.249 1229.88 324.027C1230.2 324.023 1230.5 324.023 1230.79 324.052C1231.08 324.07 1231.37 324.107 1231.64 324.158C1238.7 325.486 1238.55 337.742 1243.48 346.499C1245.39 349.871 1247.72 353.204 1250.8 356.008C1251.35 356.514 1251.9 356.991 1252.49 357.449C1252.79 357.693 1253.09 357.908 1253.39 358.122C1253.7 358.344 1254.01 358.559 1254.33 358.766C1254.61 358.955 1254.88 359.134 1255.18 359.305C1255.67 359.599 1255.88 359.723 1256.09 359.839C1256.33 359.978 1256.57 360.105 1256.82 360.225C1256.98 360.32 1257.15 360.403 1257.32 360.491C1259.74 361.687 1262.47 362.615 1265.58 363.161C1265.83 363.201 1266.08 363.248 1266.34 363.281C1269.25 363.743 1272.49 363.885 1276.09 363.637C1294.23 362.419 1299.31 351.625 1301.5 344.989C1303.66 338.444 1303.52 327.075 1304.26 321.156C1304.42 319.854 1304.91 318.846 1305.47 318.086C1306.55 316.645 1308.53 313.233 1308.33 309.588C1308.13 305.971 1305.33 302.712 1303.06 302.435ZM1211.4 338.717C1210.61 342.515 1208.82 348.067 1204.31 352.833L1204.29 352.836C1199.67 357.689 1192.15 361.738 1179.88 362.251C1167.23 362.797 1159.74 358.384 1155.24 352.978C1154.96 352.643 1154.69 352.305 1154.46 351.978C1154.19 351.639 1153.95 351.312 1153.73 350.981C1153.51 350.672 1153.31 350.359 1153.12 350.042C1152.95 349.766 1152.77 349.475 1152.62 349.195C1152.48 348.965 1152.35 348.743 1152.24 348.518C1152.12 348.31 1152.01 348.107 1151.92 347.91C1151.74 347.576 1151.57 347.226 1151.41 346.895V346.884C1150.93 345.862 1150.53 344.873 1150.19 343.912C1150.17 343.894 1150.17 343.868 1150.16 343.839C1149.94 343.228 1149.74 342.628 1149.56 342.057C1149.24 341.02 1148.98 340.045 1148.77 339.186C1148.72 338.997 1148.68 338.812 1148.63 338.637C1148.59 338.462 1148.54 338.288 1148.5 338.11C1146.74 331.041 1144.73 317.278 1148.81 314.131C1152.7 311.134 1163.3 307.75 1180.04 308.966C1180.6 308.98 1181.19 309.031 1181.8 309.093C1184.32 309.322 1186.84 309.66 1189.3 310.126C1190.28 310.304 1191.25 310.504 1192.19 310.708C1194.75 311.268 1197.2 311.938 1199.43 312.676C1200.19 312.927 1200.93 313.189 1201.63 313.455C1202.47 313.76 1203.26 314.088 1204.02 314.423C1204.17 314.492 1204.33 314.557 1204.49 314.637C1204.8 314.768 1205.09 314.903 1205.36 315.052C1207.6 316.129 1209.3 317.297 1210.23 318.424C1213.54 322.412 1212.93 331.114 1211.4 338.717ZM1297.91 332.711C1297.34 337.677 1296.1 348.551 1286.64 353.862C1283.9 355.405 1280.43 356.478 1276.1 356.783C1264.44 357.66 1257.39 353.236 1253.18 347.958C1253.16 347.925 1253.13 347.888 1253.11 347.863C1252.95 347.659 1252.79 347.459 1252.66 347.27C1252.48 347.037 1252.31 346.801 1252.15 346.579C1252.07 346.466 1251.99 346.342 1251.9 346.219C1251.68 345.88 1251.46 345.527 1251.26 345.189C1251.01 344.789 1250.79 344.396 1250.57 343.981C1250.46 343.792 1250.36 343.592 1250.26 343.396C1250.2 343.283 1250.15 343.177 1250.1 343.064C1250.01 342.897 1249.93 342.733 1249.86 342.57C1249.8 342.435 1249.73 342.304 1249.69 342.188C1248.88 340.423 1248.32 338.746 1247.92 337.306C1245.91 330.051 1244.57 321.648 1247.13 317.628C1249.66 313.651 1260.13 309.235 1270.19 307.903C1272.48 307.598 1274.62 307.427 1276.62 307.361C1276.88 307.354 1277.13 307.347 1277.38 307.343C1277.66 307.336 1277.93 307.336 1278.2 307.336C1278.96 307.328 1279.71 307.347 1280.43 307.365C1280.7 307.376 1280.96 307.383 1281.24 307.401C1281.6 307.427 1281.95 307.441 1282.29 307.478C1282.89 307.51 1283.47 307.572 1284.04 307.641C1285.19 307.769 1286.26 307.936 1287.26 308.143C1287.52 308.198 1287.78 308.252 1288.03 308.311C1288.09 308.318 1288.16 308.332 1288.23 308.354C1288.39 308.391 1288.57 308.427 1288.74 308.482C1289 308.536 1289.27 308.616 1289.52 308.682C1289.84 308.762 1290.16 308.867 1290.46 308.958C1291.01 309.133 1291.52 309.315 1292 309.511C1292.1 309.544 1292.18 309.577 1292.28 309.62C1293.82 310.246 1295.01 310.945 1295.84 311.629C1299.02 314.262 1298.61 326.417 1297.91 332.711Z" fill="#37474F"/>
<path d="M1134.7 307.08L1082.85 337.621C1087.74 338.243 1093.29 340.295 1097.62 343.755L1137.39 319.358L1134.7 307.08Z" fill="#37474F"/>
<path d="M1261.12 364.598L1229.56 378.808L1221.44 333.712C1222.02 329.524 1224.55 325.563 1226.44 324.875L1261.12 364.598Z" fill="#F0997A"/>
<path opacity="0.8" d="M1495.45 729.654C1495.42 729.308 1495.38 728.999 1495.26 728.69C1495.3 728.621 1495.26 728.551 1495.22 728.482C1495.19 728.137 1495.07 727.827 1494.96 727.555C1494.8 727.071 1494.57 726.623 1494.27 726.212C1494.19 726.005 1494.04 725.834 1493.88 725.663C1493.77 725.525 1493.69 725.386 1493.54 725.284C1493.31 725.008 1493.08 724.804 1492.78 724.597C1492.78 724.597 1492.74 724.564 1492.7 724.528C1492.39 724.32 1492.05 724.149 1491.7 724.011C1489.6 723.116 1486.88 723.356 1483.86 724.906L897.058 1028.63C890.628 1031.97 885.387 1037.06 885.387 1051.81L885.391 1067.64C885.391 1073.19 892.047 1076.65 897.377 1073.89L1483.86 770.137C1490.28 766.798 1495.53 758.674 1495.53 751.962V730.963C1495.53 730.516 1495.49 730.068 1495.45 729.654Z" fill="#455A64"/>
<path opacity="0.9" d="M889.406 1073.89L888.981 1073.7L876.7 1067.28C873.364 1065.59 871.127 1062.55 870.593 1059.17C870.525 1058.66 870.488 1058.15 870.488 1057.64V1039.21C870.488 1035.51 872.082 1031.35 874.613 1027.82L874.771 1027.91L889.163 1035.38C886.923 1038.92 885.58 1043.09 885.398 1050.69V1067.63C885.398 1068.62 885.645 1069.48 885.932 1070.21C886.887 1072.45 888.84 1073.6 889.406 1073.89Z" fill="#263238"/>
<path opacity="0.6" d="M1491.69 724.026C1489.59 723.102 1486.89 723.356 1483.85 724.921L897.073 1028.61C895.936 1029.19 894.873 1029.89 893.842 1030.66C893.134 1031.17 892.491 1031.74 891.888 1032.35C890.894 1033.24 890.044 1034.26 889.296 1035.41L874.637 1027.85C875.381 1026.79 876.234 1025.77 877.12 1024.84C877.439 1024.52 877.759 1024.24 878.042 1023.95C878.361 1023.66 878.681 1023.38 879.037 1023.12C879.356 1022.83 879.676 1022.58 880.031 1022.35C880.707 1021.84 881.414 1021.43 882.126 1021.04L1468.97 717.314C1472.3 715.557 1475.28 715.524 1477.42 716.706C1479.55 717.863 1489.2 722.844 1491.69 724.026Z" fill="#455A64"/>
<path opacity="0.9" d="M889.406 1073.9C889.511 1073.95 889.584 1073.99 889.584 1073.99L889.406 1073.9Z" fill="#263238"/>
<path d="M929.5 1041.03V1028.12C929.5 1027.2 930.163 1026.21 930.79 1026.2L943.432 1026.09C944.269 1026.09 944.269 1027.73 943.432 1028.59L930.79 1041.61C930.167 1042.25 929.5 1041.95 929.5 1041.03Z" fill="white"/>
<path d="M958.938 1025.74V1012.83C958.938 1011.91 959.601 1010.92 960.228 1010.91L972.869 1010.8C973.706 1010.8 973.706 1012.44 972.869 1013.3L960.228 1026.32C959.605 1026.96 958.938 1026.66 958.938 1025.74Z" fill="white"/>
<path d="M974.463 1019C973.929 1019.28 973.496 1018.98 973.496 1018.34V1005.09C973.496 1004.45 973.929 1003.71 974.463 1003.43C974.996 1003.16 975.429 1003.45 975.429 1004.09V1017.34C975.429 1017.98 974.996 1018.73 974.463 1019Z" fill="white"/>
<path d="M914.622 1048.75V1035.85C914.622 1034.92 913.955 1034.62 913.332 1035.27L900.69 1048.29C899.853 1049.15 899.853 1050.8 900.69 1050.79L913.332 1050.68C913.955 1050.67 914.622 1049.68 914.622 1048.75Z" fill="white"/>
<path d="M899.095 1058.15C899.629 1057.87 900.062 1057.13 900.062 1056.49V1043.24C900.062 1042.6 899.629 1042.3 899.095 1042.58C898.562 1042.86 898.129 1043.6 898.129 1044.24V1057.49C898.129 1058.13 898.562 1058.43 899.095 1058.15Z" fill="white"/>
<path d="M1467.1 753.954C1466.49 753.954 1465.99 753.507 1465.99 752.954V747.046C1465.99 746.689 1466.2 746.358 1466.55 746.18L1471.81 743.448C1472.35 743.168 1473.02 743.339 1473.33 743.815C1473.64 744.292 1473.46 744.907 1472.92 745.183L1468.22 747.628V752.957C1468.22 753.503 1467.72 753.954 1467.1 753.954Z" fill="white"/>
<path d="M1481.42 746.519C1480.81 746.519 1480.31 746.072 1480.31 745.519V741.342L1476.72 743.209C1476.18 743.485 1475.5 743.321 1475.2 742.841C1474.89 742.361 1475.07 741.75 1475.6 741.473L1480.87 738.741C1481.21 738.563 1481.63 738.563 1481.98 738.741C1482.32 738.919 1482.54 739.25 1482.54 739.607V745.515C1482.53 746.068 1482.03 746.519 1481.42 746.519Z" fill="white"/>
<path d="M1476.16 760.42C1475.78 760.42 1475.4 760.242 1475.2 759.918C1474.89 759.442 1475.07 758.83 1475.6 758.55L1480.31 756.106V750.776C1480.31 750.223 1480.81 749.775 1481.42 749.775C1482.03 749.775 1482.53 750.223 1482.53 750.776V756.684C1482.53 757.04 1482.32 757.372 1481.97 757.55L1476.71 760.282C1476.54 760.377 1476.35 760.42 1476.16 760.42Z" fill="white"/>
<path d="M1467.1 765.124C1466.91 765.124 1466.72 765.077 1466.55 764.989C1466.21 764.811 1465.99 764.48 1465.99 764.123V758.215C1465.99 757.662 1466.49 757.215 1467.1 757.215C1467.72 757.215 1468.22 757.662 1468.22 758.215V762.392L1471.81 760.525C1472.34 760.249 1473.02 760.413 1473.33 760.893C1473.64 761.369 1473.45 761.981 1472.92 762.261L1467.66 764.993C1467.49 765.077 1467.3 765.124 1467.1 765.124Z" fill="white"/>
<path d="M1458.97 757.263L1456.83 758.059C1456.72 758.121 1456.59 758.059 1456.55 757.932C1456.41 757.452 1456.23 757.037 1456.02 756.688C1455.94 756.593 1456.02 756.306 1456.12 756.08L1457.33 753.654C1457.43 753.432 1457.47 753.173 1457.4 753.112L1455.7 751.962C1455.62 751.897 1455.41 752.057 1455.27 752.282L1453.78 754.487C1453.64 754.709 1453.43 754.869 1453.32 754.84C1452.94 754.807 1452.51 754.807 1452.05 754.872C1451.94 754.905 1451.83 754.807 1451.8 754.647L1451.58 752.22C1451.54 752.093 1451.44 752.028 1451.3 752.093L1448.99 753.304C1448.85 753.37 1448.71 753.559 1448.71 753.752L1448.45 756.339C1448.45 756.531 1448.31 756.786 1448.17 756.913C1447.78 757.266 1447.39 757.648 1447.04 758.063C1446.89 758.223 1446.68 758.35 1446.57 758.318L1444.87 757.554C1444.8 757.521 1444.59 757.681 1444.48 757.936L1442.99 760.49C1442.85 760.711 1442.78 760.97 1442.85 761.032L1444.23 762.374C1444.31 762.469 1444.27 762.694 1444.2 762.949C1444.02 763.458 1443.84 764.004 1443.74 764.513C1443.7 764.735 1443.52 764.961 1443.38 765.055L1441.32 766.427C1441.18 766.492 1441.07 766.714 1441.07 766.874V769.65C1441.07 769.843 1441.18 769.937 1441.28 769.876L1443.41 769.046C1443.55 769.013 1443.66 769.079 1443.69 769.173C1443.84 769.654 1444.01 770.068 1444.27 770.45C1444.3 770.545 1444.27 770.803 1444.12 771.058L1442.95 773.452C1442.81 773.706 1442.77 773.965 1442.88 773.994L1444.58 775.176C1444.65 775.209 1444.83 775.082 1444.97 774.856L1446.46 772.655C1446.64 772.433 1446.82 772.273 1446.92 772.273C1447.35 772.338 1447.77 772.338 1448.2 772.24C1448.34 772.24 1448.45 772.335 1448.45 772.495L1448.7 774.889C1448.7 775.049 1448.84 775.114 1448.98 775.049L1451.29 773.837C1451.43 773.772 1451.54 773.55 1451.57 773.39L1451.79 770.771C1451.82 770.61 1451.93 770.356 1452.11 770.228C1452.49 769.876 1452.85 769.494 1453.21 769.079C1453.38 768.886 1453.56 768.759 1453.67 768.824L1455.37 769.559C1455.48 769.625 1455.65 769.464 1455.79 769.21L1457.28 766.656C1457.42 766.401 1457.46 766.147 1457.39 766.081L1456.04 764.742C1455.96 764.677 1455.96 764.422 1456.04 764.2C1456.25 763.687 1456.39 763.145 1456.5 762.636C1456.57 762.41 1456.71 762.156 1456.85 762.061L1458.91 760.719C1459.05 760.624 1459.2 760.431 1459.2 760.238V757.459C1459.21 757.292 1459.11 757.197 1458.97 757.263ZM1450.13 768.275C1447.96 769.392 1446.23 768.18 1446.23 765.594C1446.23 763.007 1447.97 759.973 1450.13 758.856C1452.29 757.739 1454.07 758.918 1454.07 761.537C1454.07 764.124 1452.29 767.125 1450.13 768.275Z" fill="white"/>
<path d="M1107.4 944.372V937.951L996.209 995.701C994.086 996.803 992.367 999.135 992.367 1000.91C992.367 1002.68 994.09 1003.22 996.209 1002.12L1107.4 944.372Z" fill="#BA68C8"/>
<path opacity="0.5" d="M1422.51 774.544C1422.05 774.62 1421.54 774.791 1421.01 775.068L1107.4 937.948V944.369L1421.02 781.478C1422.08 780.925 1423.04 780.07 1423.74 779.128C1424.08 778.659 1424.36 778.164 1424.56 777.68C1424.75 777.196 1424.86 776.719 1424.86 776.276C1424.86 774.951 1423.89 774.315 1422.51 774.544Z" fill="white"/>
<path d="M1112.96 938.72C1112.96 942.387 1110.45 946.64 1107.38 948.269C1104.31 949.852 1101.84 948.135 1101.84 944.468C1101.84 940.801 1104.31 936.501 1107.38 934.918C1110.45 933.332 1112.96 935.005 1112.96 938.72Z" fill="#BA68C8"/>
<path opacity="0.5" d="M1112.96 938.72C1112.96 942.387 1110.45 946.64 1107.38 948.269C1104.31 949.852 1101.84 948.135 1101.84 944.468C1101.84 940.801 1104.31 936.501 1107.38 934.918C1110.45 933.332 1112.96 935.005 1112.96 938.72Z" fill="white"/>
<path d="M1110.99 939.734C1110.99 942.103 1109.37 944.85 1107.39 945.901C1105.41 946.923 1103.81 945.814 1103.81 943.445C1103.81 941.077 1105.4 938.301 1107.39 937.279C1109.37 936.257 1110.99 937.341 1110.99 939.734Z" fill="#BA68C8"/>
</g>
<defs>
<clipPath id="clip0_374_94">
<rect width="3150" height="1800" fill="white"/>
</clipPath>
</defs>
</svg>
