<svg width="3150" height="1800" viewBox="0 0 3150 1800" fill="none" xmlns="http://www.w3.org/2000/svg">
<g clip-path="url(#clip0_374_516)">
<rect width="3150" height="1800" fill="#250F47"/>
<path d="M3262 -771H-80V2571H3262V-771Z" fill="#F3EEFA"/>
<path d="M932.585 587.212C1093.58 449.957 1095.55 24.2259 1436.31 -79.4831C1777.07 -183.192 2354.87 -46.8919 2541.54 231.644C2728.22 510.173 2689.7 1428.73 1975.59 1810.97C1261.48 2193.21 654.049 2065.8 425.891 1615.41C284.558 1336.41 289.591 1135.39 932.585 587.212Z" fill="url(#paint0_linear_374_516)"/>
<path d="M150.805 273.563C150.805 273.563 227.437 -2.52674 355.876 117.845C374.659 135.444 416.012 201.402 416.012 201.402C416.012 201.402 346.967 -59.6883 527.381 -30.0448C707.796 -0.401213 613.057 240.156 613.057 240.156C613.057 240.156 732.854 33.0255 828.074 177.788C842.338 199.477 868.165 273.563 868.165 273.563H150.805Z" fill="url(#paint1_linear_374_516)"/>
<path d="M2727.34 386.917C2727.34 386.917 2764.99 251.258 2828.1 310.405C2837.33 319.054 2857.65 351.465 2857.65 351.465C2857.65 351.465 2823.72 223.172 2912.37 237.743C3001.02 252.308 2954.47 370.508 2954.47 370.508C2954.47 370.508 3013.32 268.73 3060.12 339.861C3067.13 350.516 3079.82 386.924 3079.82 386.924H2727.34V386.917Z" fill="url(#paint2_linear_374_516)"/>
<path d="M2210.74 658.686C2167.32 661.787 2100.61 720.86 2111.26 749.28C2121.92 777.701 2200.97 748.394 2215.18 711.977C2229.39 675.56 2223.17 657.795 2210.74 658.686Z" fill="#7D7BB4"/>
<path d="M2189.85 743.065C2127.91 748.781 2050.73 759.262 2045.96 809.767C2041.2 860.267 2130.77 874.56 2169.84 872.656C2182.26 872.049 2198.92 868.844 2215.8 862.822C2252.03 849.904 2289.29 824.029 2287.99 783.088C2286.09 723.055 2189.85 743.065 2189.85 743.065Z" fill="#A7A4F0"/>
<path d="M2257.49 852.641C2340.39 855.502 2329.9 887.897 2320.38 941.257C2310.85 994.618 2194.6 998.43 2156.48 998.43C2118.37 998.43 1983.06 1000.33 1984.97 951.738C1986.87 903.142 2025.94 868.839 2101.22 862.17C2150.58 857.794 2228.54 851.641 2257.49 852.641Z" fill="#7D7BB4"/>
<path d="M2146.97 989.857C2297.85 976.14 2355.64 1000.34 2358.5 1057.51C2361.36 1114.68 2302.28 1185.19 2172.69 1199.49C2043.1 1213.78 1956.39 1181.38 1949.72 1119.45C1943.05 1057.51 2031.67 1000.34 2146.97 989.857Z" fill="#A7A4F0"/>
<path d="M2259.41 925.285C2261.65 925.285 2263.48 923.462 2263.48 921.215C2263.48 918.967 2261.65 917.145 2259.41 917.145C2257.16 917.145 2255.34 918.967 2255.34 921.215C2255.34 923.462 2257.16 925.285 2259.41 925.285Z" fill="#262653"/>
<path d="M1989.91 1092.88C1992.16 1092.88 1993.98 1091.06 1993.98 1088.81C1993.98 1086.56 1992.16 1084.74 1989.91 1084.74C1987.67 1084.74 1985.84 1086.56 1985.84 1088.81C1985.84 1091.06 1987.67 1092.88 1989.91 1092.88Z" fill="#262653"/>
<path d="M2301.98 1045.46C2304.23 1045.46 2306.05 1043.63 2306.05 1041.39C2306.05 1039.14 2304.23 1037.32 2301.98 1037.32C2299.74 1037.32 2297.91 1039.14 2297.91 1041.39C2297.91 1043.63 2299.74 1045.46 2301.98 1045.46Z" fill="#262653"/>
<path d="M2013.66 1066.61C2015.9 1066.61 2017.73 1064.79 2017.73 1062.54C2017.73 1060.29 2015.9 1058.47 2013.66 1058.47C2011.41 1058.47 2009.59 1060.29 2009.59 1062.54C2009.59 1064.79 2011.41 1066.61 2013.66 1066.61Z" fill="#262653"/>
<path d="M2217.3 959.427C2219.54 959.427 2221.37 957.605 2221.37 955.357C2221.37 953.109 2219.54 951.287 2217.3 951.287C2215.05 951.287 2213.23 953.109 2213.23 955.357C2213.23 957.605 2215.05 959.427 2217.3 959.427Z" fill="#262653"/>
<path d="M2225.42 908.097C2227.67 908.097 2229.49 906.275 2229.49 904.027C2229.49 901.779 2227.67 899.957 2225.42 899.957C2223.17 899.957 2221.35 901.779 2221.35 904.027C2221.35 906.275 2223.17 908.097 2225.42 908.097Z" fill="#262653"/>
<path d="M2079.8 817.654C2082.05 817.654 2083.87 815.832 2083.87 813.584C2083.87 811.336 2082.05 809.514 2079.8 809.514C2077.56 809.514 2075.73 811.336 2075.73 813.584C2075.73 815.832 2077.56 817.654 2079.8 817.654Z" fill="#262653"/>
<path d="M2108.84 845.988C2111.09 845.988 2112.91 844.165 2112.91 841.918C2112.91 839.67 2111.09 837.848 2108.84 837.848C2106.6 837.848 2104.77 839.67 2104.77 841.918C2104.77 844.165 2106.6 845.988 2108.84 845.988Z" fill="#262653"/>
<path d="M784.034 759.195C813.219 722.398 905.617 734.325 921.277 812.617C936.937 890.909 972.856 981.176 999.569 1014.33C1026.28 1047.49 1039.17 1194.87 1032.73 1226.18L912.067 1315.53C912.067 1315.53 812.59 1169.08 828.251 1065C843.911 960.913 835.618 905.648 808.909 876.175C782.196 846.697 762.85 785.908 784.034 759.195Z" fill="#7D7BB4"/>
<path d="M1289.85 1080.83C1289.85 1044.78 1271.15 964.665 1179.02 896.566C1086.89 828.466 1150.66 712.159 1126.62 645.4C1102.59 578.637 1009.75 406.335 864.071 513.385C787.548 569.615 891.942 629.517 961.378 668.24C1030.81 706.962 895.951 829.807 929.332 940.634C962.714 1051.46 1036.15 1150.27 1034.82 1210.35L1289.85 1080.83Z" fill="#A7A4F0"/>
<path d="M883.586 500.506C883.586 500.506 1070 549.622 1063.55 695.887C1057.1 842.152 1092.78 1075.17 1186.41 1139.73" stroke="#262653" stroke-width="4.36704" stroke-miterlimit="10" stroke-linecap="round" stroke-linejoin="round"/>
<path d="M870.789 609.549C870.789 609.549 992.966 576.049 1041.81 609.549" stroke="#262653" stroke-width="4.36704" stroke-miterlimit="10" stroke-linecap="round" stroke-linejoin="round"/>
<path d="M1132.15 675.129C1132.15 675.129 1067.52 765.068 1067.68 826.683" stroke="#262653" stroke-width="4.36704" stroke-miterlimit="10" stroke-linecap="round" stroke-linejoin="round"/>
<path d="M930.906 853.307C930.906 853.307 1056.83 911.978 1106.88 1015.87" stroke="#262653" stroke-width="4.36704" stroke-miterlimit="10" stroke-linecap="round" stroke-linejoin="round"/>
<path d="M792.797 750.902C792.797 750.902 904.689 774.69 904.689 920.915C904.689 1121.23 953.958 1228.34 998.655 1251.41" stroke="#262653" stroke-width="4.36704" stroke-miterlimit="10" stroke-linecap="round" stroke-linejoin="round"/>
<path d="M837.227 966.865L920.183 1081" stroke="#262653" stroke-width="4.36704" stroke-miterlimit="10" stroke-linecap="round" stroke-linejoin="round"/>
<path d="M899.547 771.875C899.547 771.875 901.909 809.314 902.661 888.029" stroke="#262653" stroke-width="4.36704" stroke-miterlimit="10" stroke-linecap="round" stroke-linejoin="round"/>
<path d="M1944.66 1436.75C1944.66 1436.75 1949.68 1461.95 1929.55 1461.95C1929.55 1461.95 1929.55 1477.06 1909.41 1477.06C1909.41 1477.06 1914.44 1497.19 1894.3 1497.19C1894.3 1497.19 1894.3 1512.3 1869.11 1507.24C1854.39 1504.31 1784.39 1470.29 1713.73 1442.6C1680.28 1429.46 1646.65 1417.76 1618.7 1411.47C1613.5 1410.29 1608.53 1409.33 1603.77 1408.54C1595.86 1407.27 1588.61 1406.58 1582.15 1406.58C1592.24 1315.92 1587.17 1250.5 1587.17 1250.5C1612.37 1240.41 1667.74 1230.37 1713.03 1265.61C1753.34 1296.96 1877.27 1344.21 1925.44 1364.91C1931.42 1367.49 1936.23 1369.67 1939.59 1371.33C1969.81 1386.4 1989.94 1421.64 1944.66 1436.75Z" fill="#976666"/>
<path d="M1944.62 1437.51C1944.62 1437.51 1922.78 1433.14 1914.05 1420.04" stroke="#4A2B2B" stroke-width="4.36704" stroke-miterlimit="10" stroke-linecap="round" stroke-linejoin="round"/>
<path d="M1929.81 1460.93C1929.81 1460.93 1907.98 1456.56 1899.24 1443.46" stroke="#4A2B2B" stroke-width="4.36704" stroke-miterlimit="10" stroke-linecap="round" stroke-linejoin="round"/>
<path d="M1908.79 1478.15C1908.79 1478.15 1886.95 1473.78 1878.22 1460.68" stroke="#4A2B2B" stroke-width="4.36704" stroke-miterlimit="10" stroke-linecap="round" stroke-linejoin="round"/>
<path d="M1893.99 1497.79C1893.99 1497.79 1872.16 1493.42 1863.42 1480.32" stroke="#4A2B2B" stroke-width="4.36704" stroke-miterlimit="10" stroke-linecap="round" stroke-linejoin="round"/>
<path d="M1808.99 1382.04C1804.84 1382.86 1800.91 1383.78 1797.11 1384.79C1727.68 1402.69 1714.97 1442.69 1714.97 1442.69L1713.7 1442.61C1680.25 1429.46 1646.63 1417.76 1618.68 1411.47C1613.83 1412.26 1609.07 1413 1604.4 1413.78L1603.74 1408.54L1602.78 1400.73L1808.99 1382.04Z" fill="#714D4D"/>
<path d="M1537.75 1068.68C1537.75 1068.68 1523.46 1067.26 1499.71 1065.84C1405.3 1060.2 1161.41 1054.47 1071.73 1137.09C959.477 1240.5 1090.49 1375.88 1234.6 1375.88C1378.71 1375.88 1562.13 1375.88 1562.13 1375.88L1537.75 1068.68Z" fill="#513D7A"/>
<path d="M1925.45 1364.92C1906.98 1369.85 1887.67 1373.61 1867.8 1375.88C1845.45 1378.46 1821.6 1381.47 1797.15 1384.79C1736.58 1392.95 1672.42 1402.82 1618.71 1411.47C1613.86 1412.26 1609.1 1413 1604.43 1413.78C1539.01 1424.4 1492.24 1432.65 1492.24 1432.65L1468.22 1268.89L1542.29 1248.01L1464.2 1064.07C1464.2 1064.07 1915.84 1039.62 2003.18 1065.82C2090.52 1092.02 2121.09 1140.06 2129.83 1196.83C2137.43 1246.22 2049.17 1331.99 1925.45 1364.92Z" fill="#513D7A"/>
<path d="M1490.06 1416.97C1454.55 1416.97 1394.5 1438.15 1338.26 1461.12C1274.94 1486.93 1216.42 1515.01 1203.1 1517.68C1177.9 1522.7 1177.9 1507.59 1177.9 1507.59C1157.77 1507.59 1162.83 1487.46 1162.83 1487.46C1142.66 1487.46 1142.66 1472.35 1142.66 1472.35C1122.53 1472.35 1127.59 1447.19 1127.59 1447.19C1082.26 1432.08 1102.39 1396.84 1132.61 1381.73C1162.83 1366.62 1313.85 1311.25 1359.18 1276C1404.46 1240.76 1459.84 1250.85 1485.03 1260.89C1485.03 1260.89 1482.02 1300.02 1485.34 1359.68C1486.26 1377.15 1487.78 1396.4 1490.06 1416.97Z" fill="#976666"/>
<path d="M1127.6 1447.93C1127.6 1447.93 1149.44 1443.56 1158.17 1430.46" stroke="#4A2B2B" stroke-width="4.36704" stroke-miterlimit="10" stroke-linecap="round" stroke-linejoin="round"/>
<path d="M1142.4 1471.35C1142.4 1471.35 1164.23 1466.99 1172.97 1453.88" stroke="#4A2B2B" stroke-width="4.36704" stroke-miterlimit="10" stroke-linecap="round" stroke-linejoin="round"/>
<path d="M1163.41 1488.57C1163.41 1488.57 1185.25 1484.21 1193.98 1471.11" stroke="#4A2B2B" stroke-width="4.36704" stroke-miterlimit="10" stroke-linecap="round" stroke-linejoin="round"/>
<path d="M1178.23 1508.21C1178.23 1508.21 1200.06 1503.84 1208.8 1490.74" stroke="#4A2B2B" stroke-width="4.36704" stroke-miterlimit="10" stroke-linecap="round" stroke-linejoin="round"/>
<path d="M1485.02 1260.91C1485.02 1260.91 1486.57 1221.56 1487.22 1215.07C1487.87 1208.58 1471.65 1255.94 1471.65 1255.94L1485.02 1260.91Z" fill="#3D2E5C"/>
<path d="M1506.62 1212.6C1506.62 1212.6 1752.5 1174.83 1826.62 1154.16C1826.62 1154.16 1736.82 1162.71 1682.66 1170.56C1628.49 1178.4 1506.62 1212.6 1506.62 1212.6Z" fill="#3D2E5C"/>
<path d="M1479.2 1205.08C1479.2 1205.08 1356.47 1162.27 1275.84 1163.7C1275.84 1163.7 1377.88 1136.58 1479.2 1205.08Z" fill="#3D2E5C"/>
<path d="M1874.38 967.558C1874.38 967.558 1887.55 852.387 2040.32 792.877C2040.32 792.877 2014.5 910.761 1874.38 967.558Z" fill="#513D7A"/>
<path d="M1110.11 836.542C1102.01 834.739 1236.66 995.07 1262.95 989.389C1262.95 989.389 1225.72 862.256 1110.11 836.542Z" fill="#513D7A"/>
<path d="M1520.61 290.668C1453.17 315.958 1428.9 356.174 1437.63 391.11C1446.37 426.046 1468.2 447.882 1468.2 447.882C1468.2 447.882 1437.63 452.249 1437.63 465.35C1437.63 478.451 1459.47 478.451 1459.47 478.451C1459.47 478.451 1446.37 504.653 1455.1 535.222C1463.83 565.792 1524.97 618.196 1625.42 526.488C1625.42 526.488 1677.82 469.717 1677.82 404.211C1677.82 338.706 1647.25 312.503 1621.05 299.402C1594.85 286.301 1555.54 277.567 1520.61 290.668Z" fill="#976666"/>
<path d="M1433.28 928.253C1372.14 888.95 1385.24 819.077 1385.24 819.077L992.209 1225.21C992.209 1225.21 878.666 1364.96 861.198 1351.86C847.311 1341.46 868.316 1298.36 869.845 1295.26C867.574 1298.71 830.105 1356.09 813.161 1351.86C799.754 1348.49 802.331 1335.52 804.427 1330.02C810.89 1313.21 837.616 1267.48 839.276 1264.65C837.485 1267 812.069 1300.37 782.591 1325.65C754.075 1350.11 745.253 1318.62 756.389 1303.82C769.272 1286.61 816.043 1227.13 817.484 1225.26C765.123 1255.74 738.921 1212.11 747.655 1181.54C753.769 1160.14 765.123 1142.24 778.224 1146.61C781.019 1147.52 782.941 1148.88 784.207 1150.58C788.836 1156.65 784.6 1167.09 782.591 1177.17C778.224 1199.01 804.427 1194.64 826.262 1177.17C830.498 1173.77 834.865 1169.93 839.145 1165.78C856.918 1148.53 872.596 1126.6 865.565 1116.04C860.15 1107.91 834.996 1107.3 826.262 1120.4C822.856 1125.56 795.693 1159.71 782.591 1146.61C769.49 1133.5 782.591 1085.47 834.996 1063.63C887.4 1041.8 904.869 1102.93 904.869 1102.93C904.869 1102.93 1271.7 661.864 1328.47 626.928C1385.24 591.991 1485.68 609.46 1507.52 605.093C1529.35 600.725 1524.99 583.257 1520.62 574.523L1590.49 553.867L1590.84 1057.52L1399.44 1062.63C1443.11 1036.42 1433.28 928.253 1433.28 928.253Z" fill="#976666"/>
<path d="M2424.61 1303.82C2435.75 1318.63 2426.93 1350.11 2398.41 1325.66C2368.94 1300.37 2343.52 1267.01 2341.73 1264.65C2343.39 1267.49 2370.11 1313.21 2376.58 1330.02C2378.67 1335.53 2381.25 1348.5 2367.84 1351.86C2350.9 1356.09 2313.43 1298.71 2311.16 1295.26C2312.69 1298.36 2333.69 1341.47 2319.81 1351.86C2302.34 1364.96 2188.79 1225.21 2188.79 1225.21L1795.76 819.08C1795.76 819.08 1808.86 888.953 1747.72 928.256C1747.72 928.256 1734.75 1027.48 1778.42 1053.68L1589.59 1058.18L1590.51 553.87L1656.02 482.818C1651.65 491.552 1634.18 596.361 1664.75 600.728C1686.8 603.873 1795.76 591.994 1852.53 626.931C1909.3 661.867 2276.14 1102.94 2276.14 1102.94C2276.14 1102.94 2293.6 1041.8 2346.01 1063.63C2398.41 1085.47 2411.51 1133.51 2398.41 1146.61C2397.36 1147.66 2396.27 1148.4 2395.05 1148.88C2395.01 1148.88 2395.01 1148.88 2395.01 1148.88C2381.16 1154.47 2357.89 1125.17 2354.74 1120.41C2347.89 1110.1 2330.9 1108.27 2321.29 1111.89C2318.67 1112.89 2316.57 1114.29 2315.44 1116.04C2307.8 1127.48 2326.88 1152.33 2346.4 1170.02C2349.2 1172.59 2351.99 1174.99 2354.74 1177.18C2376.58 1194.65 2402.78 1199.01 2398.41 1177.18C2395.84 1164.34 2389.68 1150.97 2402.78 1146.61C2415.88 1142.24 2427.24 1160.15 2433.35 1181.54C2442.08 1212.11 2415.88 1255.74 2363.52 1225.26C2364.96 1227.14 2411.73 1286.62 2424.61 1303.82Z" fill="#976666"/>
<path d="M1442.98 349.289C1442.98 349.289 1503.15 439.149 1586.13 426.048C1669.1 412.947 1590.49 426.048 1590.49 426.048L1581.76 478.452L1647.27 543.958C1647.27 543.958 1651 493.654 1662.23 477.317C1673.47 460.984 1721.51 347.441 1638.53 303.771C1555.56 260.101 1474.52 285.63 1442.98 349.289Z" fill="#262653"/>
<path d="M1629.82 509.02C1658.76 509.02 1682.22 485.558 1682.22 456.615C1682.22 427.673 1658.76 404.211 1629.82 404.211C1600.88 404.211 1577.41 427.673 1577.41 456.615C1577.41 485.558 1600.88 509.02 1629.82 509.02Z" fill="#976666"/>
<path d="M1452.95 515.57C1452.95 515.57 1472.6 530.855 1507.53 513.387" stroke="#4A2B2B" stroke-width="4.36704" stroke-miterlimit="10" stroke-linecap="round" stroke-linejoin="round"/>
<path d="M1483.52 450.062C1483.52 450.062 1500.98 458.796 1514.08 445.695" stroke="#4A2B2B" stroke-width="4.36704" stroke-miterlimit="10" stroke-linecap="round" stroke-linejoin="round"/>
<path d="M1614.54 428.234C1614.54 428.234 1668.8 424.745 1656.96 485.443" stroke="#4A2B2B" stroke-width="4.36704" stroke-miterlimit="10" stroke-linecap="round" stroke-linejoin="round"/>
<path d="M1610.16 476.265C1610.16 476.265 1637.15 476.663 1649.86 441.525" stroke="#4A2B2B" stroke-width="4.36704" stroke-miterlimit="10" stroke-linecap="round" stroke-linejoin="round"/>
<path d="M2040.33 792.879C2040.33 792.879 1919.49 879.171 1883.51 944.371C1879.01 952.45 1875.86 960.224 1874.42 967.473C1874.38 967.517 1874.38 967.56 1874.38 967.56L1817.61 884.587C1817.61 884.587 1773.94 936.991 1778.31 958.826C1782.67 980.661 1811.1 1054.32 1811.1 1054.32L1376.41 1064.57C1376.41 1064.57 1415.85 989.4 1407.11 963.198C1398.38 936.995 1367.81 923.894 1363.44 875.857L1361.43 878.128L1262.99 989.395C1262.99 989.395 1243.82 947.909 1206.49 906.422C1182.07 879.259 1149.89 852.096 1110.15 836.549C1110.15 836.549 1262.51 638.242 1315.4 613.83C1372.17 587.628 1437.68 596.362 1463.88 605.096C1501.92 617.761 1528.64 657.501 1581.79 657.501C1638.56 657.501 1649.04 611.952 1695.68 601.079C1734.63 591.995 1800.14 578.894 1856.91 600.729C1872.41 606.712 1893.16 623.743 1915.12 645.404C1973.47 702.961 2040.33 792.879 2040.33 792.879Z" fill="#BA91F2"/>
<path d="M876.5 1236.13C876.5 1236.13 898.335 1166.26 963.841 1170.63" stroke="#4A2B2B" stroke-width="4.36704" stroke-miterlimit="10" stroke-linecap="round" stroke-linejoin="round"/>
<path d="M2217.17 1166.26C2217.17 1166.26 2295.78 1157.53 2317.61 1227.4" stroke="#4A2B2B" stroke-width="4.36704" stroke-miterlimit="10" stroke-linecap="round" stroke-linejoin="round"/>
<path d="M1448.65 1063.69C1448.65 1063.69 1713.39 1050.28 1778.28 958.824L1812.7 1055.54L1448.65 1063.69Z" fill="#A382D8"/>
<path d="M2040.3 792.881C2040.3 792.881 1919.47 879.174 1883.48 944.374C1906.76 882.798 1962.92 715.191 1914.71 646.629L1915.1 645.406C1973.45 702.964 2040.3 792.881 2040.3 792.881Z" fill="#A382D8"/>
<path d="M1361.87 867.115L1363.38 876.194L1262.95 989.392C1262.95 989.392 1243.78 947.905 1206.45 906.419V906.331C1206.45 906.331 1295.81 936.713 1361.87 867.115Z" fill="#A382D8"/>
<path d="M1226.65 930.754C1226.65 930.754 1232.7 959.498 1207.74 1002.99L1247.08 961.764C1247.08 961.764 1233.21 936.925 1226.65 930.754Z" fill="#714D4D"/>
<path d="M1932.54 883.98C1932.54 883.98 1915.49 933.49 1936.14 963.657L1897.12 923.983C1897.12 923.983 1922.05 894.147 1932.54 883.98Z" fill="#714D4D"/>
<path d="M865.591 1116.04C860.176 1107.92 835.022 1107.31 826.288 1120.41C822.881 1125.56 795.718 1159.71 782.617 1146.61C782.617 1146.61 807.771 1135.95 820.916 1115.86C834.017 1095.73 865.809 1107.13 865.591 1116.04Z" fill="#714D4D"/>
<path d="M839.366 1166.22C839.366 1166.22 805.347 1200.54 780.411 1195.17C755.475 1189.8 784.167 1153.9 780.673 1148.01L784.21 1150.58C788.84 1156.65 784.603 1167.09 782.595 1177.18C778.228 1199.01 804.43 1194.65 826.265 1177.18C830.501 1173.77 834.868 1169.93 839.148 1165.78L839.366 1166.22Z" fill="#714D4D"/>
<path d="M2394.99 1148.88C2381.15 1154.47 2357.87 1125.16 2354.73 1120.4C2347.87 1110.1 2330.89 1108.26 2321.28 1111.89L2320.93 1111.49C2334.38 1091.67 2368.84 1117.21 2371.59 1124.51C2374.21 1131.5 2393.47 1147.61 2394.99 1148.88Z" fill="#714D4D"/>
<path d="M2345.8 1170.15L2346.37 1170.02C2349.17 1172.59 2351.96 1174.99 2354.71 1177.18C2376.55 1194.65 2402.75 1199.01 2398.38 1177.18C2395.81 1164.34 2389.65 1150.98 2402.75 1146.61C2410.7 1145.56 2409.14 1175.69 2408.42 1187.24C2407.61 1200.43 2365.41 1214.6 2345.8 1170.15Z" fill="#714D4D"/>
<path d="M1490.04 1416.97C1454.54 1416.97 1394.49 1438.15 1338.24 1461.12L1337.94 1460.38C1337.94 1460.38 1466.33 1406.79 1485.02 1356.22L1485.33 1359.67L1490.04 1416.97Z" fill="#714D4D"/>
<path d="M1701.95 376.07C1751.45 376.07 1791.58 335.939 1791.58 286.436C1791.58 236.933 1751.45 196.803 1701.95 196.803C1652.44 196.803 1612.31 236.933 1612.31 286.436C1612.31 335.939 1652.44 376.07 1701.95 376.07Z" fill="#262653"/>
<path d="M1726.89 206.047C1694.55 194.959 1652.05 180.173 1620.62 225.454C1595.05 262.312 1622.47 306.773 1622.47 306.773" stroke="#262653" stroke-width="4.36704" stroke-miterlimit="10"/>
<path d="M1681.62 374.224C1681.62 374.224 1721.55 385.64 1752.77 371.451C1793.43 352.97 1788.81 279.971 1788.81 279.971" stroke="#262653" stroke-width="4.36704" stroke-miterlimit="10"/>
<path d="M1616.93 293.826C1616.93 293.826 1513 225.478 1442.99 349.283C1442.99 349.283 1440.76 428.68 1562.19 428.68" stroke="#262653" stroke-width="4.36704" stroke-miterlimit="10"/>
<path d="M1558.33 415.727C1558.33 415.727 1566.01 457.484 1580.89 457.004L1589.53 418.124L1558.33 415.727Z" fill="#262653"/>
<path d="M1522.03 578.068C1522.03 578.068 1524.23 583.671 1524.63 590.885C1524.63 590.885 1560.64 584.719 1587.24 548.547C1587.24 548.547 1543.12 577.74 1522.03 578.068Z" fill="#714D4D"/>
<path d="M1619.76 503.674C1624.01 503.674 1627.45 500.231 1627.45 495.983C1627.45 491.736 1624.01 488.293 1619.76 488.293C1615.51 488.293 1612.07 491.736 1612.07 495.983C1612.07 500.231 1615.51 503.674 1619.76 503.674Z" fill="#F3EEFA"/>
<path d="M1123.52 819.053C1123.52 819.053 1180.69 843.954 1208.36 873.767C1236.02 903.586 1276.91 973.672 1276.91 973.672" stroke="#262653" stroke-width="4.36704" stroke-miterlimit="10" stroke-linecap="round" stroke-linejoin="round"/>
<path d="M1864.2 952.397C1872.69 934.92 1902.99 874.472 1934.32 846.531C1966.83 817.534 2030.99 781.615 2030.99 781.615" stroke="#262653" stroke-width="4.36704" stroke-miterlimit="10" stroke-linecap="round" stroke-linejoin="round"/>
<path d="M1509.23 603.369C1509.72 622.282 1545.49 804.545 1576.51 804.545C1603.65 804.545 1661.82 598.578 1661.82 598.578" stroke="#F3EEFA" stroke-width="4.36704" stroke-miterlimit="10"/>
<path d="M1575.88 818.774C1579.33 818.774 1582.13 815.976 1582.13 812.525C1582.13 809.073 1579.33 806.275 1575.88 806.275C1572.43 806.275 1569.63 809.073 1569.63 812.525C1569.63 815.976 1572.43 818.774 1575.88 818.774Z" fill="#F3EEFA"/>
<path d="M1575.88 829.547C1579.33 829.547 1582.13 826.749 1582.13 823.298C1582.13 819.847 1579.33 817.049 1575.88 817.049C1572.43 817.049 1569.63 819.847 1569.63 823.298C1569.63 826.749 1572.43 829.547 1575.88 829.547Z" fill="#F3EEFA"/>
<path d="M1575.88 840.313C1579.33 840.313 1582.13 837.515 1582.13 834.064C1582.13 830.612 1579.33 827.814 1575.88 827.814C1572.43 827.814 1569.63 830.612 1569.63 834.064C1569.63 837.515 1572.43 840.313 1575.88 840.313Z" fill="#F3EEFA"/>
<path d="M1575.88 851.082C1579.33 851.082 1582.13 848.285 1582.13 844.833C1582.13 841.382 1579.33 838.584 1575.88 838.584C1572.43 838.584 1569.63 841.382 1569.63 844.833C1569.63 848.285 1572.43 851.082 1575.88 851.082Z" fill="#F3EEFA"/>
<path d="M2143.01 1179.47C2152.44 1179.47 2160.08 1171.83 2160.08 1162.4C2160.08 1152.98 2152.44 1145.34 2143.01 1145.34C2133.59 1145.34 2125.95 1152.98 2125.95 1162.4C2125.95 1171.83 2133.59 1179.47 2143.01 1179.47Z" fill="#262653"/>
<path d="M2168.81 1157.83C2178.23 1157.83 2185.87 1150.19 2185.87 1140.76C2185.87 1131.34 2178.23 1123.7 2168.81 1123.7C2159.38 1123.7 2151.74 1131.34 2151.74 1140.76C2151.74 1150.19 2159.38 1157.83 2168.81 1157.83Z" fill="#262653"/>
<path d="M2194.61 1135.35C2204.03 1135.35 2211.67 1127.7 2211.67 1118.28C2211.67 1108.85 2204.03 1101.21 2194.61 1101.21C2185.18 1101.21 2177.54 1108.85 2177.54 1118.28C2177.54 1127.7 2185.18 1135.35 2194.61 1135.35Z" fill="#262653"/>
<path d="M2221.65 1114.54C2231.08 1114.54 2238.72 1106.9 2238.72 1097.48C2238.72 1088.05 2231.08 1080.41 2221.65 1080.41C2212.23 1080.41 2204.59 1088.05 2204.59 1097.48C2204.59 1106.9 2212.23 1114.54 2221.65 1114.54Z" fill="#F3EEFA"/>
<path d="M2248.71 1093.73C2258.14 1093.73 2265.78 1086.09 2265.78 1076.66C2265.78 1067.24 2258.14 1059.6 2248.71 1059.6C2239.29 1059.6 2231.65 1067.24 2231.65 1076.66C2231.65 1086.09 2239.29 1093.73 2248.71 1093.73Z" fill="#262653"/>
<path d="M1524.47 1208.87C1524.47 1208.87 1513.61 1371.76 1531.15 1426.89" stroke="#262653" stroke-width="4.36704" stroke-miterlimit="10" stroke-linecap="round" stroke-linejoin="round"/>
<path d="M1525.3 1258.16C1525.3 1258.16 1838.54 1225.58 1889.49 1192.17C1889.49 1192.17 1922.07 1173.79 1909.54 1169.62C1909.54 1169.62 1929.59 1146.23 1914.56 1144.56C1914.56 1144.56 1744.15 1107.81 1637.23 1116.99C1530.31 1126.18 1524.47 1126.18 1524.47 1126.18C1524.47 1126.18 1262.18 1108.64 1207.05 1137.04C1151.92 1165.44 1209.55 1166.28 1209.55 1166.28C1209.55 1166.28 1209.55 1177.98 1212.9 1178.81C1216.24 1179.64 1229.6 1176.3 1229.6 1176.3L1484.37 1242.29" stroke="#262653" stroke-width="4.36704" stroke-miterlimit="10" stroke-linecap="round" stroke-linejoin="round"/>
<path d="M1539.92 1063.94C1539.92 1063.94 1511.52 1089.42 1524.47 1126.18L1548.07 1124.71C1548.07 1124.71 1548.07 1075.22 1575.01 1062.06" stroke="#262653" stroke-width="4.36704" stroke-miterlimit="10" stroke-linecap="round" stroke-linejoin="round"/>
<path d="M1962.43 535.721C1894.36 539.848 1891.02 543.193 1886.89 611.262C1882.77 543.193 1879.42 539.848 1811.35 535.721C1879.42 531.594 1882.77 528.249 1886.89 460.18C1891.02 528.249 1894.36 531.594 1962.43 535.721Z" fill="url(#paint3_linear_374_516)"/>
<path d="M1596.65 178.365C1544.96 181.497 1542.42 184.038 1539.29 235.731C1536.16 184.038 1533.61 181.501 1481.92 178.365C1533.61 175.234 1536.15 172.693 1539.29 121C1542.42 172.693 1544.96 175.234 1596.65 178.365Z" fill="url(#paint4_linear_374_516)"/>
<path d="M1351.87 493.129C1283.8 497.256 1280.46 500.601 1276.33 568.67C1272.2 500.601 1268.86 497.256 1200.79 493.129C1268.86 489.002 1272.2 485.657 1276.33 417.588C1280.46 485.657 1283.8 489.002 1351.87 493.129Z" fill="url(#paint5_linear_374_516)"/>
<path d="M1806.36 463.103C1771.3 465.23 1769.58 466.951 1767.45 502.009C1765.33 466.951 1763.61 465.226 1728.55 463.103C1763.61 460.976 1765.33 459.256 1767.45 424.197C1769.58 459.256 1771.3 460.981 1806.36 463.103Z" fill="url(#paint6_linear_374_516)"/>
<path d="M1404.55 316.261C1369.5 318.388 1367.77 320.109 1365.65 355.167C1363.52 320.109 1361.8 318.384 1326.74 316.261C1361.8 314.135 1363.53 312.414 1365.65 277.355C1367.77 312.414 1369.5 314.135 1404.55 316.261Z" fill="url(#paint7_linear_374_516)"/>
<path d="M1938.71 285.595C1903.65 287.722 1901.93 289.443 1899.8 324.501C1897.68 289.443 1895.96 287.718 1860.9 285.595C1895.96 283.469 1897.68 281.748 1899.8 246.689C1901.93 281.748 1903.65 283.469 1938.71 285.595Z" fill="url(#paint8_linear_374_516)"/>
<path d="M1230.71 1500.88C1229.31 1506.3 1227.65 1511.63 1225.81 1516.91C1225.81 1516.95 1225.81 1516.95 1225.81 1516.95C1219.09 1535.65 1209.22 1552.98 1196.77 1568.35C1189.74 1577.18 1181.79 1585.39 1173.1 1592.81C1139 1622.2 1093.67 1640.06 1043.88 1640.06C991.654 1640.06 944.315 1620.41 909.685 1588.44C902.61 1581.98 896.103 1574.95 890.208 1567.48C877.631 1551.67 867.761 1533.9 861.167 1514.73C859.813 1510.93 858.678 1507.09 857.586 1503.15C861.342 1476.95 943.573 1455.95 1044.41 1455.95C1142.4 1455.95 1222.67 1475.69 1230.71 1500.88Z" fill="#A7A4F0"/>
<path d="M1231.37 1505.01C1231.37 1509.15 1229.46 1513.12 1225.82 1516.92C1225.77 1516.92 1225.82 1516.98 1225.82 1516.98C1205.48 1538.3 1132 1554.13 1044.43 1554.13C953.869 1554.13 878.372 1537.21 861.183 1514.75C858.738 1511.6 857.484 1508.33 857.484 1505.01C857.484 1504.36 857.537 1503.77 857.594 1503.17C861.345 1476.95 943.585 1455.96 1044.43 1455.96C1142.39 1455.96 1222.67 1475.7 1230.72 1500.88C1231.15 1502.24 1231.37 1503.6 1231.37 1505.01Z" fill="#7D7BB4"/>
<path d="M962.062 1534.49L978.12 1550.82C978.12 1550.82 1083.59 1559.96 1115.98 1550.27L1123.73 1540.3L1131.49 1538.92L1135.08 1522.31L970.089 1514.28L962.062 1534.49Z" fill="#AB8359"/>
<path d="M1099.02 1498.21L1085.42 1516.98L1058.28 1554.51C1058.28 1554.51 993.122 1555.27 981.266 1551.19C981.266 1551.19 1012.65 1520.13 1035.66 1499.08C1035.88 1498.86 1036.04 1498.7 1036.26 1498.54C1036.74 1498.05 1037.23 1497.61 1037.72 1497.18C1048.49 1487.39 1057.03 1480.21 1059.04 1480.1C1059.04 1480.1 1079.76 1479.34 1084.99 1480.1C1090.15 1480.81 1096.79 1489.73 1098.64 1490.82C1100.55 1491.9 1099.02 1498.21 1099.02 1498.21Z" fill="#E4AE76"/>
<path d="M1099.05 1498.21L1085.45 1516.98L1078.87 1514.58L1063.64 1512.63L1039.87 1523.67L1044.55 1508.49L1035.68 1499.08L1035.41 1498.75L1036.28 1498.53L1037.64 1498.21L1037.75 1497.17C1048.52 1487.38 1057.06 1480.2 1059.07 1480.09C1059.07 1480.09 1079.79 1479.33 1085.01 1480.09C1090.18 1480.8 1096.82 1489.72 1098.67 1490.81C1100.57 1491.9 1099.05 1498.21 1099.05 1498.21Z" fill="#AB8359"/>
<path d="M991.359 1498.14C1033.65 1449.44 1096.46 1327.68 1079.8 1214.89C1063.14 1102.1 1116.52 1057.82 1152.85 1086.72C1209.25 1131.58 1155.42 1336.65 1115.68 1391.76C1075.95 1446.88 991.359 1498.14 991.359 1498.14Z" fill="url(#paint9_linear_374_516)"/>
<path d="M1048.83 1185.9C1048.83 1185.9 997.561 1134.63 1000.12 1093.61C1002.69 1052.6 1036.01 996.205 1019.35 948.778C1002.69 901.357 1020.22 816.955 1060.36 787.285C1089.84 765.498 1128.29 786.002 1111.63 818.047C1094.97 850.088 1078.31 909.047 1093.69 948.778C1109.07 988.51 1018.07 1055.16 1027.04 1112.83C1036.01 1170.51 1032.17 1151.29 1048.83 1185.9Z" fill="url(#paint10_linear_374_516)"/>
<path d="M1157.64 1007.42C1183.21 969.075 1211.61 881.013 1201.67 804.315C1191.73 727.617 1113.61 692.109 1120.71 635.298C1127.81 578.487 1166.17 562.862 1207.35 579.906C1248.54 596.951 1315.3 753.186 1255.64 873.913C1195.99 994.639 1157.64 1007.42 1157.64 1007.42Z" fill="url(#paint11_linear_374_516)"/>
<path d="M1196.76 1568.36C1189.73 1577.18 1181.78 1585.39 1173.09 1592.82C1074.07 1618.24 993.022 1616.16 909.672 1588.45C902.598 1581.98 896.091 1574.95 890.195 1567.49C1026.97 1604.38 1110.79 1590.53 1196.76 1568.36Z" fill="#513D7A"/>
<path d="M1017.56 1468.6C1053.22 1444.04 1064.31 1396.51 1066.2 1353.26C1066.86 1338.51 1066.67 1323.23 1060.7 1309.72C1054.74 1296.22 1041.64 1284.87 1026.88 1285.25C1012.11 1285.61 998.516 1301.35 1003.63 1315.2C1007.02 1324.37 1016.82 1329.74 1026.45 1331.42C1054.82 1336.38 1082.9 1314.69 1093.05 1287.74C1103.2 1260.79 1098.91 1230.47 1090.21 1203.01C1081.93 1176.87 1069.78 1151.95 1054.27 1129.32C1034.01 1099.74 1007.65 1073.28 996.332 1039.26C980.034 990.231 1002.17 931.272 1046.7 905.078" stroke="white" stroke-width="4.36704" stroke-miterlimit="10"/>
<path d="M1102.48 1057.15C1136.61 1036.26 1162.99 1002.99 1175.53 964.98C1188.07 926.978 1186.69 884.544 1171.69 847.437C1160.28 819.213 1140.88 791.019 1146.99 761.197C1151.21 740.558 1168.72 723.291 1189.42 719.356C1202.15 716.933 1216.25 719.596 1225.86 728.3C1235.47 737.003 1239.42 752.161 1233.4 763.651C1231.46 767.354 1228.47 770.664 1224.57 772.175C1214.58 776.045 1204.41 767.088 1198.35 758.253C1167.23 712.884 1169.16 647.453 1202.9 603.992" stroke="white" stroke-width="4.36704" stroke-miterlimit="10"/>
<path d="M1162.9 1170.99C1141.41 1172.29 1140.36 1173.35 1139.05 1194.84C1137.75 1173.35 1136.69 1172.3 1115.2 1170.99C1136.69 1169.69 1137.75 1168.63 1139.05 1147.14C1140.36 1168.63 1141.41 1169.69 1162.9 1170.99Z" fill="white"/>
<path d="M1031.35 859.737C1009.86 861.038 1008.81 862.095 1007.5 883.585C1006.2 862.095 1005.15 861.043 983.656 859.737C1005.15 858.436 1006.2 857.379 1007.5 835.889C1008.81 857.379 1009.86 858.436 1031.35 859.737Z" fill="white"/>
<path d="M1008.02 1378.73C986.527 1380.03 985.474 1381.09 984.169 1402.58C982.867 1381.09 981.811 1380.04 960.32 1378.73C981.811 1377.43 982.863 1376.37 984.169 1354.88C985.47 1376.37 986.527 1377.43 1008.02 1378.73Z" fill="white"/>
<path d="M1056.46 1220.62C1034.97 1221.93 1033.92 1222.98 1032.61 1244.47C1031.31 1222.98 1030.26 1221.93 1008.77 1220.62C1030.26 1219.32 1031.31 1218.27 1032.61 1196.78C1033.92 1218.27 1034.97 1219.32 1056.46 1220.62Z" fill="white"/>
<path d="M1100.52 1009.09C1087.31 1009.89 1086.66 1010.54 1085.86 1023.75C1085.06 1010.54 1084.41 1009.89 1071.2 1009.09C1084.41 1008.29 1085.06 1007.64 1085.86 994.422C1086.66 1007.64 1087.31 1008.28 1100.52 1009.09Z" fill="white"/>
<path d="M1263.88 814.399C1250.66 815.198 1250.01 815.849 1249.21 829.063C1248.41 815.849 1247.76 815.202 1234.55 814.399C1247.76 813.6 1248.41 812.949 1249.21 799.734C1250.01 812.949 1250.67 813.595 1263.88 814.399Z" fill="white"/>
<path d="M1113.66 1369.53C1100.45 1370.33 1099.8 1370.98 1099 1384.2C1098.2 1370.98 1097.55 1370.34 1084.34 1369.53C1097.55 1368.73 1098.2 1368.08 1099 1354.87C1099.8 1368.08 1100.45 1368.73 1113.66 1369.53Z" fill="white"/>
<path opacity="0.32" d="M2121.95 1495.33C2180.17 1495.33 2227.37 1489.91 2227.37 1483.22C2227.37 1476.53 2180.17 1471.11 2121.95 1471.11C2063.72 1471.11 2016.52 1476.53 2016.52 1483.22C2016.52 1489.91 2063.72 1495.33 2121.95 1495.33Z" fill="#A7A4F0"/>
<path d="M2121.94 1505.83C2170.29 1505.83 2209.48 1501.33 2209.48 1495.77C2209.48 1490.22 2170.29 1485.72 2121.94 1485.72C2073.59 1485.72 2034.4 1490.22 2034.4 1495.77C2034.4 1501.33 2073.59 1505.83 2121.94 1505.83Z" fill="#E4AE76"/>
<path d="M2034.4 1495.77V1618.71C2034.4 1624.26 2073.59 1628.76 2121.94 1628.76C2170.29 1628.76 2209.48 1624.26 2209.48 1618.71V1495.77H2034.4Z" fill="#E4AE76"/>
<path opacity="0.32" d="M2121.95 1495.33C2063.72 1495.33 2016.52 1489.91 2016.52 1483.22V1631.26C2016.52 1637.95 2063.72 1643.38 2121.95 1643.38C2180.17 1643.38 2227.37 1637.95 2227.37 1631.26V1483.22C2227.37 1489.91 2180.17 1495.33 2121.95 1495.33Z" fill="#A7A4F0"/>
<path d="M2121.95 1485.71V1457.59" stroke="#262653" stroke-width="4.36704" stroke-miterlimit="10" stroke-linecap="round" stroke-linejoin="round"/>
<path d="M2121.95 1471.11C2121.95 1471.11 2091.66 1463.59 2108.33 1431.58C2125 1399.58 2118.33 1377.57 2118.33 1377.57C2118.33 1377.57 2162.24 1457.95 2121.95 1471.11Z" fill="url(#paint12_linear_374_516)"/>
</g>
<defs>
<linearGradient id="paint0_linear_374_516" x1="1494.05" y1="-114.148" x2="1494.05" y2="2037.01" gradientUnits="userSpaceOnUse">
<stop stop-color="#E8BFDC"/>
<stop offset="0.356" stop-color="#EFDEF0"/>
<stop offset="0.5944" stop-color="#F3EEFA"/>
</linearGradient>
<linearGradient id="paint1_linear_374_516" x1="509.487" y1="-32.3955" x2="509.487" y2="273.56" gradientUnits="userSpaceOnUse">
<stop stop-color="#E8BFDC"/>
<stop offset="0.599" stop-color="#EFDEF0"/>
<stop offset="1" stop-color="#F3EEFA"/>
</linearGradient>
<linearGradient id="paint2_linear_374_516" x1="2903.58" y1="236.585" x2="2903.58" y2="386.918" gradientUnits="userSpaceOnUse">
<stop stop-color="#E8BFDC"/>
<stop offset="0.5477" stop-color="#EFDEF0"/>
<stop offset="0.9144" stop-color="#F3EEFA"/>
</linearGradient>
<linearGradient id="paint3_linear_374_516" x1="1886.89" y1="460.178" x2="1886.89" y2="611.263" gradientUnits="userSpaceOnUse">
<stop stop-color="#F3EEFA"/>
<stop offset="0.4957" stop-color="#F7F3FB" stop-opacity="0.5043"/>
<stop offset="1" stop-color="white" stop-opacity="0"/>
</linearGradient>
<linearGradient id="paint4_linear_374_516" x1="1539.29" y1="121.002" x2="1539.29" y2="235.73" gradientUnits="userSpaceOnUse">
<stop stop-color="white"/>
<stop offset="1" stop-color="white" stop-opacity="0"/>
</linearGradient>
<linearGradient id="paint5_linear_374_516" x1="1276.33" y1="417.587" x2="1276.33" y2="568.672" gradientUnits="userSpaceOnUse">
<stop stop-color="white"/>
<stop offset="1" stop-color="white" stop-opacity="0"/>
</linearGradient>
<linearGradient id="paint6_linear_374_516" x1="1767.45" y1="424.198" x2="1767.45" y2="502.013" gradientUnits="userSpaceOnUse">
<stop stop-color="white"/>
<stop offset="1" stop-color="white" stop-opacity="0"/>
</linearGradient>
<linearGradient id="paint7_linear_374_516" x1="1365.65" y1="277.354" x2="1365.65" y2="355.169" gradientUnits="userSpaceOnUse">
<stop stop-color="white"/>
<stop offset="1" stop-color="white" stop-opacity="0"/>
</linearGradient>
<linearGradient id="paint8_linear_374_516" x1="1899.8" y1="246.688" x2="1899.8" y2="324.503" gradientUnits="userSpaceOnUse">
<stop stop-color="white"/>
<stop offset="1" stop-color="white" stop-opacity="0"/>
</linearGradient>
<linearGradient id="paint9_linear_374_516" x1="1084.29" y1="1078.12" x2="1084.29" y2="1498.14" gradientUnits="userSpaceOnUse">
<stop stop-color="#E8BFDC"/>
<stop offset="0.356" stop-color="#EFDEF0" stop-opacity="0.8203"/>
<stop offset="0.5944" stop-color="#F3EEFA" stop-opacity="0.7"/>
</linearGradient>
<linearGradient id="paint10_linear_374_516" x1="1057.85" y1="778.253" x2="1057.85" y2="1185.9" gradientUnits="userSpaceOnUse">
<stop stop-color="#E8BFDC"/>
<stop offset="0.356" stop-color="#EFDEF0" stop-opacity="0.8203"/>
<stop offset="0.5944" stop-color="#F3EEFA" stop-opacity="0.7"/>
</linearGradient>
<linearGradient id="paint11_linear_374_516" x1="1199.81" y1="573.384" x2="1199.81" y2="1007.42" gradientUnits="userSpaceOnUse">
<stop stop-color="#E8BFDC"/>
<stop offset="0.356" stop-color="#EFDEF0" stop-opacity="0.8203"/>
<stop offset="0.5944" stop-color="#F3EEFA" stop-opacity="0.7"/>
</linearGradient>
<linearGradient id="paint12_linear_374_516" x1="2121.14" y1="1377.57" x2="2121.14" y2="1471.11" gradientUnits="userSpaceOnUse">
<stop stop-color="#E8BFDC"/>
<stop offset="0.3612" stop-color="#E8BFDC"/>
<stop offset="0.5471" stop-color="#E9C3DF" stop-opacity="0.709"/>
<stop offset="0.7343" stop-color="#ECCFE6" stop-opacity="0.416"/>
<stop offset="0.9215" stop-color="#F0E3F3" stop-opacity="0.1229"/>
<stop offset="1" stop-color="#F3EEFA" stop-opacity="0"/>
</linearGradient>
<clipPath id="clip0_374_516">
<rect width="3150" height="1800" fill="white"/>
</clipPath>
</defs>
</svg>
